<mxfile host="app.diagrams.net" agent="Mozilla/5.0 (Windows NT 10.0; Win64; x64) AppleWebKit/537.36 (KHTML, like Gecko) Chrome/135.0.0.0 Safari/537.36" version="26.2.12">
  <diagram name="Page-1" id="tN5K2Nhks3WNrbRtYstL">
    <mxGraphModel dx="5225" dy="4810" grid="1" gridSize="10" guides="1" tooltips="1" connect="1" arrows="1" fold="1" page="1" pageScale="1" pageWidth="850" pageHeight="1100" math="0" shadow="0">
      <root>
        <mxCell id="0" />
        <mxCell id="1" parent="0" />
        <mxCell id="Qtv70iltkPXdNL7PVpSX-45" style="edgeStyle=orthogonalEdgeStyle;rounded=0;orthogonalLoop=1;jettySize=auto;html=1;" parent="1" source="GTe_rG1EHSNJOBv9OXUv-47" target="GTe_rG1EHSNJOBv9OXUv-21" edge="1">
          <mxGeometry relative="1" as="geometry">
            <Array as="points">
              <mxPoint x="1640" y="460" />
              <mxPoint x="1640" y="640" />
            </Array>
          </mxGeometry>
        </mxCell>
        <mxCell id="GTe_rG1EHSNJOBv9OXUv-47" value="is_favorites" style="shape=rhombus;perimeter=rhombusPerimeter;whiteSpace=wrap;html=1;align=center;" parent="1" vertex="1">
          <mxGeometry x="960" y="390" width="120" height="60" as="geometry" />
        </mxCell>
        <mxCell id="Qtv70iltkPXdNL7PVpSX-44" style="edgeStyle=orthogonalEdgeStyle;rounded=0;orthogonalLoop=1;jettySize=auto;html=1;" parent="1" source="uTlC51wtbgL0At9paiF0-66" target="GTe_rG1EHSNJOBv9OXUv-18" edge="1">
          <mxGeometry relative="1" as="geometry" />
        </mxCell>
        <mxCell id="uTlC51wtbgL0At9paiF0-66" value="has" style="shape=rhombus;perimeter=rhombusPerimeter;whiteSpace=wrap;html=1;align=center;" parent="1" vertex="1">
          <mxGeometry x="580" y="70" width="120" height="60" as="geometry" />
        </mxCell>
        <mxCell id="uTlC51wtbgL0At9paiF0-73" value="has" style="shape=rhombus;perimeter=rhombusPerimeter;whiteSpace=wrap;html=1;align=center;" parent="1" vertex="1">
          <mxGeometry x="400" y="530" width="120" height="60" as="geometry" />
        </mxCell>
        <mxCell id="uTlC51wtbgL0At9paiF0-74" value="has" style="shape=rhombus;perimeter=rhombusPerimeter;whiteSpace=wrap;html=1;align=center;" parent="1" vertex="1">
          <mxGeometry x="-230" y="530" width="120" height="60" as="geometry" />
        </mxCell>
        <mxCell id="uTlC51wtbgL0At9paiF0-80" value="has" style="shape=rhombus;perimeter=rhombusPerimeter;whiteSpace=wrap;html=1;align=center;" parent="1" vertex="1">
          <mxGeometry x="150" y="550" width="120" height="60" as="geometry" />
        </mxCell>
        <mxCell id="uTlC51wtbgL0At9paiF0-83" value="" style="endArrow=none;html=1;rounded=0;exitX=0.5;exitY=1;exitDx=0;exitDy=0;entryX=0.5;entryY=0;entryDx=0;entryDy=0;" parent="1" source="uTlC51wtbgL0At9paiF0-80" target="GTe_rG1EHSNJOBv9OXUv-53" edge="1">
          <mxGeometry relative="1" as="geometry">
            <mxPoint x="260" y="830" as="sourcePoint" />
            <mxPoint x="420" y="830" as="targetPoint" />
          </mxGeometry>
        </mxCell>
        <mxCell id="uTlC51wtbgL0At9paiF0-84" value="1" style="resizable=0;html=1;whiteSpace=wrap;align=right;verticalAlign=bottom;" parent="uTlC51wtbgL0At9paiF0-83" connectable="0" vertex="1">
          <mxGeometry x="1" relative="1" as="geometry">
            <mxPoint x="-189" y="-185" as="offset" />
          </mxGeometry>
        </mxCell>
        <mxCell id="uTlC51wtbgL0At9paiF0-85" value="" style="endArrow=none;html=1;rounded=0;exitX=0.5;exitY=1;exitDx=0;exitDy=0;entryX=0.25;entryY=0;entryDx=0;entryDy=0;" parent="1" source="uTlC51wtbgL0At9paiF0-74" target="GTe_rG1EHSNJOBv9OXUv-52" edge="1">
          <mxGeometry relative="1" as="geometry">
            <mxPoint x="260" y="830" as="sourcePoint" />
            <mxPoint x="420" y="830" as="targetPoint" />
          </mxGeometry>
        </mxCell>
        <mxCell id="uTlC51wtbgL0At9paiF0-86" value="1" style="resizable=0;html=1;whiteSpace=wrap;align=right;verticalAlign=bottom;" parent="uTlC51wtbgL0At9paiF0-85" connectable="0" vertex="1">
          <mxGeometry x="1" relative="1" as="geometry">
            <mxPoint x="110" y="-160" as="offset" />
          </mxGeometry>
        </mxCell>
        <mxCell id="uTlC51wtbgL0At9paiF0-87" value="" style="endArrow=none;html=1;rounded=0;exitX=0.5;exitY=1;exitDx=0;exitDy=0;entryX=0.5;entryY=0;entryDx=0;entryDy=0;" parent="1" source="uTlC51wtbgL0At9paiF0-73" target="GTe_rG1EHSNJOBv9OXUv-55" edge="1">
          <mxGeometry relative="1" as="geometry">
            <mxPoint x="330" y="650" as="sourcePoint" />
            <mxPoint x="490" y="650" as="targetPoint" />
          </mxGeometry>
        </mxCell>
        <mxCell id="uTlC51wtbgL0At9paiF0-88" value="1" style="resizable=0;html=1;whiteSpace=wrap;align=right;verticalAlign=bottom;" parent="uTlC51wtbgL0At9paiF0-87" connectable="0" vertex="1">
          <mxGeometry x="1" relative="1" as="geometry">
            <mxPoint x="-59" y="-39" as="offset" />
          </mxGeometry>
        </mxCell>
        <mxCell id="Qtv70iltkPXdNL7PVpSX-2" value="" style="swimlane;startSize=0;" parent="1" vertex="1">
          <mxGeometry x="-160" y="-420" width="920" height="440" as="geometry" />
        </mxCell>
        <mxCell id="Qtv70iltkPXdNL7PVpSX-5" style="edgeStyle=orthogonalEdgeStyle;rounded=0;orthogonalLoop=1;jettySize=auto;html=1;shape=link;" parent="Qtv70iltkPXdNL7PVpSX-2" source="GTe_rG1EHSNJOBv9OXUv-4" target="GTe_rG1EHSNJOBv9OXUv-8" edge="1">
          <mxGeometry relative="1" as="geometry" />
        </mxCell>
        <mxCell id="Qtv70iltkPXdNL7PVpSX-11" value="" style="edgeStyle=orthogonalEdgeStyle;rounded=0;orthogonalLoop=1;jettySize=auto;html=1;" parent="Qtv70iltkPXdNL7PVpSX-2" source="GTe_rG1EHSNJOBv9OXUv-4" target="Qtv70iltkPXdNL7PVpSX-10" edge="1">
          <mxGeometry relative="1" as="geometry" />
        </mxCell>
        <mxCell id="Qtv70iltkPXdNL7PVpSX-13" value="" style="edgeStyle=orthogonalEdgeStyle;rounded=0;orthogonalLoop=1;jettySize=auto;html=1;" parent="Qtv70iltkPXdNL7PVpSX-2" source="GTe_rG1EHSNJOBv9OXUv-4" target="Qtv70iltkPXdNL7PVpSX-12" edge="1">
          <mxGeometry relative="1" as="geometry" />
        </mxCell>
        <mxCell id="Qtv70iltkPXdNL7PVpSX-15" value="" style="edgeStyle=orthogonalEdgeStyle;rounded=0;orthogonalLoop=1;jettySize=auto;html=1;" parent="Qtv70iltkPXdNL7PVpSX-2" source="GTe_rG1EHSNJOBv9OXUv-4" target="Qtv70iltkPXdNL7PVpSX-14" edge="1">
          <mxGeometry relative="1" as="geometry" />
        </mxCell>
        <mxCell id="Qtv70iltkPXdNL7PVpSX-17" value="" style="edgeStyle=orthogonalEdgeStyle;rounded=0;orthogonalLoop=1;jettySize=auto;html=1;" parent="Qtv70iltkPXdNL7PVpSX-2" source="GTe_rG1EHSNJOBv9OXUv-4" target="Qtv70iltkPXdNL7PVpSX-16" edge="1">
          <mxGeometry relative="1" as="geometry" />
        </mxCell>
        <mxCell id="Qtv70iltkPXdNL7PVpSX-20" value="" style="edgeStyle=orthogonalEdgeStyle;rounded=0;orthogonalLoop=1;jettySize=auto;html=1;" parent="Qtv70iltkPXdNL7PVpSX-2" source="GTe_rG1EHSNJOBv9OXUv-4" target="Qtv70iltkPXdNL7PVpSX-19" edge="1">
          <mxGeometry relative="1" as="geometry">
            <Array as="points">
              <mxPoint x="80" y="260" />
              <mxPoint x="70" y="260" />
            </Array>
          </mxGeometry>
        </mxCell>
        <mxCell id="Qtv70iltkPXdNL7PVpSX-22" value="" style="edgeStyle=orthogonalEdgeStyle;rounded=0;orthogonalLoop=1;jettySize=auto;html=1;" parent="Qtv70iltkPXdNL7PVpSX-2" source="GTe_rG1EHSNJOBv9OXUv-4" target="Qtv70iltkPXdNL7PVpSX-21" edge="1">
          <mxGeometry relative="1" as="geometry" />
        </mxCell>
        <mxCell id="GTe_rG1EHSNJOBv9OXUv-4" value="&lt;b&gt;&lt;font style=&quot;font-size: 22px;&quot;&gt;User&lt;/font&gt;&lt;/b&gt;" style="whiteSpace=wrap;html=1;align=center;" parent="Qtv70iltkPXdNL7PVpSX-2" vertex="1">
          <mxGeometry x="70" y="170" width="240" height="70" as="geometry" />
        </mxCell>
        <mxCell id="Qtv70iltkPXdNL7PVpSX-24" value="" style="edgeStyle=orthogonalEdgeStyle;rounded=0;orthogonalLoop=1;jettySize=auto;html=1;" parent="Qtv70iltkPXdNL7PVpSX-2" source="GTe_rG1EHSNJOBv9OXUv-5" target="Qtv70iltkPXdNL7PVpSX-23" edge="1">
          <mxGeometry relative="1" as="geometry" />
        </mxCell>
        <mxCell id="Qtv70iltkPXdNL7PVpSX-26" value="" style="edgeStyle=orthogonalEdgeStyle;rounded=0;orthogonalLoop=1;jettySize=auto;html=1;" parent="Qtv70iltkPXdNL7PVpSX-2" source="GTe_rG1EHSNJOBv9OXUv-5" target="Qtv70iltkPXdNL7PVpSX-25" edge="1">
          <mxGeometry relative="1" as="geometry" />
        </mxCell>
        <mxCell id="Qtv70iltkPXdNL7PVpSX-28" value="" style="edgeStyle=orthogonalEdgeStyle;rounded=0;orthogonalLoop=1;jettySize=auto;html=1;" parent="Qtv70iltkPXdNL7PVpSX-2" source="GTe_rG1EHSNJOBv9OXUv-5" target="Qtv70iltkPXdNL7PVpSX-27" edge="1">
          <mxGeometry relative="1" as="geometry" />
        </mxCell>
        <mxCell id="Qtv70iltkPXdNL7PVpSX-30" value="" style="edgeStyle=orthogonalEdgeStyle;rounded=0;orthogonalLoop=1;jettySize=auto;html=1;" parent="Qtv70iltkPXdNL7PVpSX-2" source="GTe_rG1EHSNJOBv9OXUv-5" target="Qtv70iltkPXdNL7PVpSX-29" edge="1">
          <mxGeometry relative="1" as="geometry" />
        </mxCell>
        <mxCell id="Qtv70iltkPXdNL7PVpSX-32" value="" style="edgeStyle=orthogonalEdgeStyle;rounded=0;orthogonalLoop=1;jettySize=auto;html=1;" parent="Qtv70iltkPXdNL7PVpSX-2" source="GTe_rG1EHSNJOBv9OXUv-5" target="Qtv70iltkPXdNL7PVpSX-31" edge="1">
          <mxGeometry relative="1" as="geometry" />
        </mxCell>
        <mxCell id="GTe_rG1EHSNJOBv9OXUv-5" value="&lt;b&gt;&lt;font style=&quot;font-size: 22px;&quot;&gt;Roles&lt;/font&gt;&lt;/b&gt;" style="whiteSpace=wrap;html=1;align=center;" parent="Qtv70iltkPXdNL7PVpSX-2" vertex="1">
          <mxGeometry x="630" y="110" width="240" height="70" as="geometry" />
        </mxCell>
        <mxCell id="Qtv70iltkPXdNL7PVpSX-4" style="edgeStyle=orthogonalEdgeStyle;rounded=0;orthogonalLoop=1;jettySize=auto;html=1;" parent="Qtv70iltkPXdNL7PVpSX-2" source="GTe_rG1EHSNJOBv9OXUv-8" target="GTe_rG1EHSNJOBv9OXUv-5" edge="1">
          <mxGeometry relative="1" as="geometry" />
        </mxCell>
        <mxCell id="Qtv70iltkPXdNL7PVpSX-41" value="" style="edgeStyle=orthogonalEdgeStyle;rounded=0;orthogonalLoop=1;jettySize=auto;html=1;" parent="Qtv70iltkPXdNL7PVpSX-2" source="GTe_rG1EHSNJOBv9OXUv-8" target="Qtv70iltkPXdNL7PVpSX-40" edge="1">
          <mxGeometry relative="1" as="geometry" />
        </mxCell>
        <mxCell id="Qtv70iltkPXdNL7PVpSX-43" value="" style="edgeStyle=orthogonalEdgeStyle;rounded=0;orthogonalLoop=1;jettySize=auto;html=1;" parent="Qtv70iltkPXdNL7PVpSX-2" source="GTe_rG1EHSNJOBv9OXUv-8" target="Qtv70iltkPXdNL7PVpSX-42" edge="1">
          <mxGeometry relative="1" as="geometry" />
        </mxCell>
        <mxCell id="GTe_rG1EHSNJOBv9OXUv-8" value="Has" style="shape=rhombus;perimeter=rhombusPerimeter;whiteSpace=wrap;html=1;align=center;" parent="Qtv70iltkPXdNL7PVpSX-2" vertex="1">
          <mxGeometry x="450" y="80" width="120" height="60" as="geometry" />
        </mxCell>
        <mxCell id="Qtv70iltkPXdNL7PVpSX-10" value="id" style="ellipse;whiteSpace=wrap;html=1;" parent="Qtv70iltkPXdNL7PVpSX-2" vertex="1">
          <mxGeometry x="280" y="50" width="80" height="80" as="geometry" />
        </mxCell>
        <mxCell id="Qtv70iltkPXdNL7PVpSX-12" value="emain" style="ellipse;whiteSpace=wrap;html=1;" parent="Qtv70iltkPXdNL7PVpSX-2" vertex="1">
          <mxGeometry x="170" y="40" width="80" height="80" as="geometry" />
        </mxCell>
        <mxCell id="Qtv70iltkPXdNL7PVpSX-14" value="password" style="ellipse;whiteSpace=wrap;html=1;" parent="Qtv70iltkPXdNL7PVpSX-2" vertex="1">
          <mxGeometry x="70" y="30" width="80" height="80" as="geometry" />
        </mxCell>
        <mxCell id="Qtv70iltkPXdNL7PVpSX-16" value="profile_pic" style="ellipse;whiteSpace=wrap;html=1;" parent="Qtv70iltkPXdNL7PVpSX-2" vertex="1">
          <mxGeometry x="-10" y="60" width="80" height="80" as="geometry" />
        </mxCell>
        <mxCell id="Qtv70iltkPXdNL7PVpSX-19" value="created_at" style="ellipse;whiteSpace=wrap;html=1;" parent="Qtv70iltkPXdNL7PVpSX-2" vertex="1">
          <mxGeometry x="30" y="270" width="80" height="80" as="geometry" />
        </mxCell>
        <mxCell id="Qtv70iltkPXdNL7PVpSX-21" value="updated_at" style="ellipse;whiteSpace=wrap;html=1;" parent="Qtv70iltkPXdNL7PVpSX-2" vertex="1">
          <mxGeometry x="-20" y="190" width="80" height="80" as="geometry" />
        </mxCell>
        <mxCell id="Qtv70iltkPXdNL7PVpSX-23" value="id" style="ellipse;whiteSpace=wrap;html=1;" parent="Qtv70iltkPXdNL7PVpSX-2" vertex="1">
          <mxGeometry x="610" y="10" width="80" height="80" as="geometry" />
        </mxCell>
        <mxCell id="Qtv70iltkPXdNL7PVpSX-25" value="user_id" style="ellipse;whiteSpace=wrap;html=1;" parent="Qtv70iltkPXdNL7PVpSX-2" vertex="1">
          <mxGeometry x="710" y="-20" width="80" height="80" as="geometry" />
        </mxCell>
        <mxCell id="Qtv70iltkPXdNL7PVpSX-27" value="role" style="ellipse;whiteSpace=wrap;html=1;" parent="Qtv70iltkPXdNL7PVpSX-2" vertex="1">
          <mxGeometry x="810" width="80" height="80" as="geometry" />
        </mxCell>
        <mxCell id="Qtv70iltkPXdNL7PVpSX-29" value="created_at" style="ellipse;whiteSpace=wrap;html=1;" parent="Qtv70iltkPXdNL7PVpSX-2" vertex="1">
          <mxGeometry x="620" y="190" width="80" height="80" as="geometry" />
        </mxCell>
        <mxCell id="Qtv70iltkPXdNL7PVpSX-31" value="updated_at" style="ellipse;whiteSpace=wrap;html=1;" parent="Qtv70iltkPXdNL7PVpSX-2" vertex="1">
          <mxGeometry x="810" y="190" width="80" height="80" as="geometry" />
        </mxCell>
        <mxCell id="Qtv70iltkPXdNL7PVpSX-40" value="created_at" style="ellipse;whiteSpace=wrap;html=1;" parent="Qtv70iltkPXdNL7PVpSX-2" vertex="1">
          <mxGeometry x="390" y="10" width="80" height="80" as="geometry" />
        </mxCell>
        <mxCell id="Qtv70iltkPXdNL7PVpSX-42" value="updated_at" style="ellipse;whiteSpace=wrap;html=1;" parent="Qtv70iltkPXdNL7PVpSX-2" vertex="1">
          <mxGeometry x="520" width="80" height="80" as="geometry" />
        </mxCell>
        <mxCell id="GTe_rG1EHSNJOBv9OXUv-17" value="&lt;font style=&quot;font-size: 25px;&quot;&gt;&lt;b&gt;General&lt;/b&gt;&lt;/font&gt;" style="text;html=1;align=center;verticalAlign=middle;resizable=0;points=[];autosize=1;strokeColor=none;fillColor=none;" parent="Qtv70iltkPXdNL7PVpSX-2" vertex="1">
          <mxGeometry width="120" height="40" as="geometry" />
        </mxCell>
        <mxCell id="Qtv70iltkPXdNL7PVpSX-6" style="edgeStyle=orthogonalEdgeStyle;rounded=0;orthogonalLoop=1;jettySize=auto;html=1;" parent="1" source="GTe_rG1EHSNJOBv9OXUv-4" target="uTlC51wtbgL0At9paiF0-66" edge="1">
          <mxGeometry relative="1" as="geometry">
            <Array as="points">
              <mxPoint x="150" y="-140" />
              <mxPoint x="630" y="-140" />
            </Array>
          </mxGeometry>
        </mxCell>
        <mxCell id="Qtv70iltkPXdNL7PVpSX-7" style="edgeStyle=orthogonalEdgeStyle;rounded=0;orthogonalLoop=1;jettySize=auto;html=1;" parent="1" source="GTe_rG1EHSNJOBv9OXUv-4" target="GTe_rG1EHSNJOBv9OXUv-47" edge="1">
          <mxGeometry relative="1" as="geometry">
            <Array as="points">
              <mxPoint x="110" y="-70" />
              <mxPoint x="440" y="-70" />
              <mxPoint x="440" y="420" />
              <mxPoint x="960" y="420" />
            </Array>
          </mxGeometry>
        </mxCell>
        <mxCell id="Qtv70iltkPXdNL7PVpSX-9" style="edgeStyle=orthogonalEdgeStyle;rounded=0;orthogonalLoop=1;jettySize=auto;html=1;" parent="1" source="GTe_rG1EHSNJOBv9OXUv-4" target="uTlC51wtbgL0At9paiF0-80" edge="1">
          <mxGeometry relative="1" as="geometry">
            <mxPoint x="20.000000000000455" y="-200" as="sourcePoint" />
            <mxPoint x="170.11764705882388" y="560.0588235294117" as="targetPoint" />
            <Array as="points">
              <mxPoint x="20" y="560" />
            </Array>
          </mxGeometry>
        </mxCell>
        <mxCell id="Qtv70iltkPXdNL7PVpSX-18" style="edgeStyle=orthogonalEdgeStyle;rounded=0;orthogonalLoop=1;jettySize=auto;html=1;" parent="1" target="uTlC51wtbgL0At9paiF0-74" edge="1">
          <mxGeometry relative="1" as="geometry">
            <mxPoint x="20.073255813953484" y="-180" as="sourcePoint" />
            <mxPoint x="-89.9965116279072" y="560.0232558139535" as="targetPoint" />
            <Array as="points">
              <mxPoint x="20" y="490" />
              <mxPoint x="-170" y="490" />
            </Array>
          </mxGeometry>
        </mxCell>
        <mxCell id="Qtv70iltkPXdNL7PVpSX-33" value="" style="swimlane;startSize=0;" parent="1" vertex="1">
          <mxGeometry x="1250" y="40" width="900" height="1300" as="geometry" />
        </mxCell>
        <mxCell id="Qtv70iltkPXdNL7PVpSX-49" value="" style="edgeStyle=orthogonalEdgeStyle;rounded=0;orthogonalLoop=1;jettySize=auto;html=1;" parent="Qtv70iltkPXdNL7PVpSX-33" source="GTe_rG1EHSNJOBv9OXUv-18" target="Qtv70iltkPXdNL7PVpSX-48" edge="1">
          <mxGeometry relative="1" as="geometry" />
        </mxCell>
        <mxCell id="Qtv70iltkPXdNL7PVpSX-53" value="" style="edgeStyle=orthogonalEdgeStyle;rounded=0;orthogonalLoop=1;jettySize=auto;html=1;" parent="Qtv70iltkPXdNL7PVpSX-33" source="GTe_rG1EHSNJOBv9OXUv-18" target="Qtv70iltkPXdNL7PVpSX-52" edge="1">
          <mxGeometry relative="1" as="geometry" />
        </mxCell>
        <mxCell id="Qtv70iltkPXdNL7PVpSX-55" value="" style="edgeStyle=orthogonalEdgeStyle;rounded=0;orthogonalLoop=1;jettySize=auto;html=1;" parent="Qtv70iltkPXdNL7PVpSX-33" source="GTe_rG1EHSNJOBv9OXUv-18" target="Qtv70iltkPXdNL7PVpSX-54" edge="1">
          <mxGeometry relative="1" as="geometry" />
        </mxCell>
        <mxCell id="Qtv70iltkPXdNL7PVpSX-57" value="" style="edgeStyle=orthogonalEdgeStyle;rounded=0;orthogonalLoop=1;jettySize=auto;html=1;" parent="Qtv70iltkPXdNL7PVpSX-33" source="GTe_rG1EHSNJOBv9OXUv-18" target="Qtv70iltkPXdNL7PVpSX-56" edge="1">
          <mxGeometry relative="1" as="geometry" />
        </mxCell>
        <mxCell id="Qtv70iltkPXdNL7PVpSX-59" value="" style="edgeStyle=orthogonalEdgeStyle;rounded=0;orthogonalLoop=1;jettySize=auto;html=1;" parent="Qtv70iltkPXdNL7PVpSX-33" source="GTe_rG1EHSNJOBv9OXUv-18" target="Qtv70iltkPXdNL7PVpSX-58" edge="1">
          <mxGeometry relative="1" as="geometry" />
        </mxCell>
        <mxCell id="Qtv70iltkPXdNL7PVpSX-61" value="" style="edgeStyle=orthogonalEdgeStyle;rounded=0;orthogonalLoop=1;jettySize=auto;html=1;" parent="Qtv70iltkPXdNL7PVpSX-33" source="GTe_rG1EHSNJOBv9OXUv-18" target="Qtv70iltkPXdNL7PVpSX-60" edge="1">
          <mxGeometry relative="1" as="geometry" />
        </mxCell>
        <mxCell id="GTe_rG1EHSNJOBv9OXUv-18" value="&lt;span style=&quot;font-size: 22px;&quot;&gt;&lt;b&gt;Author&lt;/b&gt;&lt;/span&gt;" style="whiteSpace=wrap;html=1;align=center;" parent="Qtv70iltkPXdNL7PVpSX-33" vertex="1">
          <mxGeometry x="230" y="225" width="240" height="70" as="geometry" />
        </mxCell>
        <mxCell id="GTe_rG1EHSNJOBv9OXUv-38" value="write" style="shape=rhombus;perimeter=rhombusPerimeter;whiteSpace=wrap;html=1;align=center;" parent="Qtv70iltkPXdNL7PVpSX-33" vertex="1">
          <mxGeometry x="440" y="455" width="120" height="60" as="geometry" />
        </mxCell>
        <mxCell id="GTe_rG1EHSNJOBv9OXUv-43" value="" style="shape=link;html=1;rounded=0;exitX=0.5;exitY=1;exitDx=0;exitDy=0;entryX=0.5;entryY=0;entryDx=0;entryDy=0;" parent="Qtv70iltkPXdNL7PVpSX-33" source="GTe_rG1EHSNJOBv9OXUv-18" target="GTe_rG1EHSNJOBv9OXUv-38" edge="1">
          <mxGeometry relative="1" as="geometry">
            <mxPoint x="-260" y="310" as="sourcePoint" />
            <mxPoint x="-100" y="310" as="targetPoint" />
          </mxGeometry>
        </mxCell>
        <mxCell id="GTe_rG1EHSNJOBv9OXUv-44" value="1" style="resizable=0;html=1;whiteSpace=wrap;align=right;verticalAlign=bottom;" parent="GTe_rG1EHSNJOBv9OXUv-43" connectable="0" vertex="1">
          <mxGeometry x="1" relative="1" as="geometry">
            <mxPoint x="-40" y="-40" as="offset" />
          </mxGeometry>
        </mxCell>
        <mxCell id="GTe_rG1EHSNJOBv9OXUv-37" value="Has" style="shape=rhombus;perimeter=rhombusPerimeter;whiteSpace=wrap;html=1;align=center;" parent="Qtv70iltkPXdNL7PVpSX-33" vertex="1">
          <mxGeometry x="150" y="465" width="120" height="60" as="geometry" />
        </mxCell>
        <mxCell id="GTe_rG1EHSNJOBv9OXUv-39" value="" style="shape=link;html=1;rounded=0;exitX=0.5;exitY=0;exitDx=0;exitDy=0;entryX=0.5;entryY=1;entryDx=0;entryDy=0;" parent="Qtv70iltkPXdNL7PVpSX-33" source="GTe_rG1EHSNJOBv9OXUv-37" target="GTe_rG1EHSNJOBv9OXUv-18" edge="1">
          <mxGeometry relative="1" as="geometry">
            <mxPoint x="-260" y="310" as="sourcePoint" />
            <mxPoint x="-100" y="310" as="targetPoint" />
          </mxGeometry>
        </mxCell>
        <mxCell id="GTe_rG1EHSNJOBv9OXUv-40" value="1" style="resizable=0;html=1;whiteSpace=wrap;align=right;verticalAlign=bottom;" parent="GTe_rG1EHSNJOBv9OXUv-39" connectable="0" vertex="1">
          <mxGeometry x="1" relative="1" as="geometry">
            <mxPoint x="-80" y="50" as="offset" />
          </mxGeometry>
        </mxCell>
        <mxCell id="Qtv70iltkPXdNL7PVpSX-63" value="" style="edgeStyle=orthogonalEdgeStyle;rounded=0;orthogonalLoop=1;jettySize=auto;html=1;" parent="Qtv70iltkPXdNL7PVpSX-33" source="GTe_rG1EHSNJOBv9OXUv-20" target="Qtv70iltkPXdNL7PVpSX-62" edge="1">
          <mxGeometry relative="1" as="geometry" />
        </mxCell>
        <mxCell id="Qtv70iltkPXdNL7PVpSX-65" value="" style="edgeStyle=orthogonalEdgeStyle;rounded=0;orthogonalLoop=1;jettySize=auto;html=1;" parent="Qtv70iltkPXdNL7PVpSX-33" source="GTe_rG1EHSNJOBv9OXUv-20" target="Qtv70iltkPXdNL7PVpSX-64" edge="1">
          <mxGeometry relative="1" as="geometry" />
        </mxCell>
        <mxCell id="Qtv70iltkPXdNL7PVpSX-67" value="" style="edgeStyle=orthogonalEdgeStyle;rounded=0;orthogonalLoop=1;jettySize=auto;html=1;" parent="Qtv70iltkPXdNL7PVpSX-33" source="GTe_rG1EHSNJOBv9OXUv-20" target="Qtv70iltkPXdNL7PVpSX-66" edge="1">
          <mxGeometry relative="1" as="geometry" />
        </mxCell>
        <mxCell id="Qtv70iltkPXdNL7PVpSX-68" value="" style="edgeStyle=orthogonalEdgeStyle;rounded=0;orthogonalLoop=1;jettySize=auto;html=1;" parent="Qtv70iltkPXdNL7PVpSX-33" source="GTe_rG1EHSNJOBv9OXUv-20" target="Qtv70iltkPXdNL7PVpSX-66" edge="1">
          <mxGeometry relative="1" as="geometry" />
        </mxCell>
        <mxCell id="Qtv70iltkPXdNL7PVpSX-70" value="" style="edgeStyle=orthogonalEdgeStyle;rounded=0;orthogonalLoop=1;jettySize=auto;html=1;" parent="Qtv70iltkPXdNL7PVpSX-33" source="GTe_rG1EHSNJOBv9OXUv-20" target="Qtv70iltkPXdNL7PVpSX-69" edge="1">
          <mxGeometry relative="1" as="geometry" />
        </mxCell>
        <mxCell id="Qtv70iltkPXdNL7PVpSX-72" value="" style="edgeStyle=orthogonalEdgeStyle;rounded=0;orthogonalLoop=1;jettySize=auto;html=1;" parent="Qtv70iltkPXdNL7PVpSX-33" source="GTe_rG1EHSNJOBv9OXUv-20" target="Qtv70iltkPXdNL7PVpSX-71" edge="1">
          <mxGeometry relative="1" as="geometry" />
        </mxCell>
        <mxCell id="Qtv70iltkPXdNL7PVpSX-74" value="" style="edgeStyle=orthogonalEdgeStyle;rounded=0;orthogonalLoop=1;jettySize=auto;html=1;" parent="Qtv70iltkPXdNL7PVpSX-33" source="GTe_rG1EHSNJOBv9OXUv-20" target="Qtv70iltkPXdNL7PVpSX-73" edge="1">
          <mxGeometry relative="1" as="geometry" />
        </mxCell>
        <mxCell id="Qtv70iltkPXdNL7PVpSX-76" value="" style="edgeStyle=orthogonalEdgeStyle;rounded=0;orthogonalLoop=1;jettySize=auto;html=1;" parent="Qtv70iltkPXdNL7PVpSX-33" source="GTe_rG1EHSNJOBv9OXUv-20" target="Qtv70iltkPXdNL7PVpSX-75" edge="1">
          <mxGeometry relative="1" as="geometry" />
        </mxCell>
        <mxCell id="GTe_rG1EHSNJOBv9OXUv-20" value="&lt;span style=&quot;font-size: 22px;&quot;&gt;&lt;b&gt;Announcement&lt;/b&gt;&lt;/span&gt;" style="whiteSpace=wrap;html=1;align=center;" parent="Qtv70iltkPXdNL7PVpSX-33" vertex="1">
          <mxGeometry x="90" y="580" width="240" height="70" as="geometry" />
        </mxCell>
        <mxCell id="GTe_rG1EHSNJOBv9OXUv-41" value="" style="endArrow=none;html=1;rounded=0;exitX=0.5;exitY=1;exitDx=0;exitDy=0;entryX=0.5;entryY=0;entryDx=0;entryDy=0;" parent="Qtv70iltkPXdNL7PVpSX-33" source="GTe_rG1EHSNJOBv9OXUv-37" target="GTe_rG1EHSNJOBv9OXUv-20" edge="1">
          <mxGeometry relative="1" as="geometry">
            <mxPoint x="270" y="610" as="sourcePoint" />
            <mxPoint x="430" y="610" as="targetPoint" />
          </mxGeometry>
        </mxCell>
        <mxCell id="GTe_rG1EHSNJOBv9OXUv-42" value="N" style="resizable=0;html=1;whiteSpace=wrap;align=right;verticalAlign=bottom;" parent="GTe_rG1EHSNJOBv9OXUv-41" connectable="0" vertex="1">
          <mxGeometry x="1" relative="1" as="geometry">
            <mxPoint x="10" y="-30" as="offset" />
          </mxGeometry>
        </mxCell>
        <mxCell id="Qtv70iltkPXdNL7PVpSX-78" value="" style="edgeStyle=orthogonalEdgeStyle;rounded=0;orthogonalLoop=1;jettySize=auto;html=1;" parent="Qtv70iltkPXdNL7PVpSX-33" source="GTe_rG1EHSNJOBv9OXUv-21" target="Qtv70iltkPXdNL7PVpSX-77" edge="1">
          <mxGeometry relative="1" as="geometry" />
        </mxCell>
        <mxCell id="Qtv70iltkPXdNL7PVpSX-80" value="" style="edgeStyle=orthogonalEdgeStyle;rounded=0;orthogonalLoop=1;jettySize=auto;html=1;" parent="Qtv70iltkPXdNL7PVpSX-33" source="GTe_rG1EHSNJOBv9OXUv-21" target="Qtv70iltkPXdNL7PVpSX-79" edge="1">
          <mxGeometry relative="1" as="geometry" />
        </mxCell>
        <mxCell id="Qtv70iltkPXdNL7PVpSX-82" value="" style="edgeStyle=orthogonalEdgeStyle;rounded=0;orthogonalLoop=1;jettySize=auto;html=1;" parent="Qtv70iltkPXdNL7PVpSX-33" source="GTe_rG1EHSNJOBv9OXUv-21" target="Qtv70iltkPXdNL7PVpSX-81" edge="1">
          <mxGeometry relative="1" as="geometry" />
        </mxCell>
        <mxCell id="Qtv70iltkPXdNL7PVpSX-84" value="" style="edgeStyle=orthogonalEdgeStyle;rounded=0;orthogonalLoop=1;jettySize=auto;html=1;" parent="Qtv70iltkPXdNL7PVpSX-33" source="GTe_rG1EHSNJOBv9OXUv-21" target="Qtv70iltkPXdNL7PVpSX-83" edge="1">
          <mxGeometry relative="1" as="geometry" />
        </mxCell>
        <mxCell id="Qtv70iltkPXdNL7PVpSX-86" value="" style="edgeStyle=orthogonalEdgeStyle;rounded=0;orthogonalLoop=1;jettySize=auto;html=1;" parent="Qtv70iltkPXdNL7PVpSX-33" source="GTe_rG1EHSNJOBv9OXUv-21" target="Qtv70iltkPXdNL7PVpSX-85" edge="1">
          <mxGeometry relative="1" as="geometry" />
        </mxCell>
        <mxCell id="Qtv70iltkPXdNL7PVpSX-88" value="" style="edgeStyle=orthogonalEdgeStyle;rounded=0;orthogonalLoop=1;jettySize=auto;html=1;" parent="Qtv70iltkPXdNL7PVpSX-33" source="GTe_rG1EHSNJOBv9OXUv-21" target="Qtv70iltkPXdNL7PVpSX-87" edge="1">
          <mxGeometry relative="1" as="geometry" />
        </mxCell>
        <mxCell id="GTe_rG1EHSNJOBv9OXUv-21" value="&lt;span style=&quot;font-size: 22px;&quot;&gt;&lt;b&gt;Article&lt;/b&gt;&lt;/span&gt;" style="whiteSpace=wrap;html=1;align=center;" parent="Qtv70iltkPXdNL7PVpSX-33" vertex="1">
          <mxGeometry x="430" y="575" width="240" height="70" as="geometry" />
        </mxCell>
        <mxCell id="GTe_rG1EHSNJOBv9OXUv-45" value="" style="endArrow=none;html=1;rounded=0;exitX=0.5;exitY=1;exitDx=0;exitDy=0;entryX=0.5;entryY=0;entryDx=0;entryDy=0;" parent="Qtv70iltkPXdNL7PVpSX-33" source="GTe_rG1EHSNJOBv9OXUv-38" target="GTe_rG1EHSNJOBv9OXUv-21" edge="1">
          <mxGeometry relative="1" as="geometry">
            <mxPoint x="270" y="610" as="sourcePoint" />
            <mxPoint x="430" y="610" as="targetPoint" />
          </mxGeometry>
        </mxCell>
        <mxCell id="GTe_rG1EHSNJOBv9OXUv-46" value="N" style="resizable=0;html=1;whiteSpace=wrap;align=right;verticalAlign=bottom;" parent="GTe_rG1EHSNJOBv9OXUv-45" connectable="0" vertex="1">
          <mxGeometry x="1" relative="1" as="geometry">
            <mxPoint x="-45" y="-50" as="offset" />
          </mxGeometry>
        </mxCell>
        <mxCell id="GTe_rG1EHSNJOBv9OXUv-23" value="Has" style="shape=rhombus;perimeter=rhombusPerimeter;whiteSpace=wrap;html=1;align=center;" parent="Qtv70iltkPXdNL7PVpSX-33" vertex="1">
          <mxGeometry x="480" y="955" width="120" height="60" as="geometry" />
        </mxCell>
        <mxCell id="GTe_rG1EHSNJOBv9OXUv-35" value="" style="endArrow=none;html=1;rounded=0;exitX=0.5;exitY=0;exitDx=0;exitDy=0;entryX=0.5;entryY=1;entryDx=0;entryDy=0;" parent="Qtv70iltkPXdNL7PVpSX-33" source="GTe_rG1EHSNJOBv9OXUv-23" target="GTe_rG1EHSNJOBv9OXUv-21" edge="1">
          <mxGeometry relative="1" as="geometry">
            <mxPoint x="310" y="680" as="sourcePoint" />
            <mxPoint x="470" y="680" as="targetPoint" />
          </mxGeometry>
        </mxCell>
        <mxCell id="GTe_rG1EHSNJOBv9OXUv-36" value="1" style="resizable=0;html=1;whiteSpace=wrap;align=right;verticalAlign=bottom;" parent="GTe_rG1EHSNJOBv9OXUv-35" connectable="0" vertex="1">
          <mxGeometry x="1" relative="1" as="geometry">
            <mxPoint x="-10" y="40" as="offset" />
          </mxGeometry>
        </mxCell>
        <mxCell id="Qtv70iltkPXdNL7PVpSX-46" style="edgeStyle=orthogonalEdgeStyle;rounded=0;orthogonalLoop=1;jettySize=auto;html=1;" parent="Qtv70iltkPXdNL7PVpSX-33" source="GTe_rG1EHSNJOBv9OXUv-22" target="GTe_rG1EHSNJOBv9OXUv-24" edge="1">
          <mxGeometry relative="1" as="geometry">
            <Array as="points">
              <mxPoint x="230" y="1065" />
            </Array>
          </mxGeometry>
        </mxCell>
        <mxCell id="Qtv70iltkPXdNL7PVpSX-92" value="" style="edgeStyle=orthogonalEdgeStyle;rounded=0;orthogonalLoop=1;jettySize=auto;html=1;" parent="Qtv70iltkPXdNL7PVpSX-33" source="GTe_rG1EHSNJOBv9OXUv-22" target="Qtv70iltkPXdNL7PVpSX-89" edge="1">
          <mxGeometry relative="1" as="geometry">
            <Array as="points">
              <mxPoint x="650" y="1015" />
            </Array>
          </mxGeometry>
        </mxCell>
        <mxCell id="Qtv70iltkPXdNL7PVpSX-94" value="" style="edgeStyle=orthogonalEdgeStyle;rounded=0;orthogonalLoop=1;jettySize=auto;html=1;" parent="Qtv70iltkPXdNL7PVpSX-33" source="GTe_rG1EHSNJOBv9OXUv-22" target="Qtv70iltkPXdNL7PVpSX-93" edge="1">
          <mxGeometry relative="1" as="geometry">
            <Array as="points">
              <mxPoint x="670" y="1100" />
              <mxPoint x="670" y="1100" />
            </Array>
          </mxGeometry>
        </mxCell>
        <mxCell id="Qtv70iltkPXdNL7PVpSX-96" value="" style="edgeStyle=orthogonalEdgeStyle;rounded=0;orthogonalLoop=1;jettySize=auto;html=1;" parent="Qtv70iltkPXdNL7PVpSX-33" source="GTe_rG1EHSNJOBv9OXUv-22" target="Qtv70iltkPXdNL7PVpSX-95" edge="1">
          <mxGeometry relative="1" as="geometry">
            <Array as="points">
              <mxPoint x="700" y="1120" />
            </Array>
          </mxGeometry>
        </mxCell>
        <mxCell id="Qtv70iltkPXdNL7PVpSX-98" value="" style="edgeStyle=orthogonalEdgeStyle;rounded=0;orthogonalLoop=1;jettySize=auto;html=1;" parent="Qtv70iltkPXdNL7PVpSX-33" source="GTe_rG1EHSNJOBv9OXUv-22" target="Qtv70iltkPXdNL7PVpSX-97" edge="1">
          <mxGeometry relative="1" as="geometry" />
        </mxCell>
        <mxCell id="Qtv70iltkPXdNL7PVpSX-101" value="" style="edgeStyle=orthogonalEdgeStyle;rounded=0;orthogonalLoop=1;jettySize=auto;html=1;" parent="Qtv70iltkPXdNL7PVpSX-33" source="GTe_rG1EHSNJOBv9OXUv-22" target="Qtv70iltkPXdNL7PVpSX-100" edge="1">
          <mxGeometry relative="1" as="geometry">
            <Array as="points">
              <mxPoint x="400" y="1060" />
              <mxPoint x="400" y="1055" />
              <mxPoint x="380" y="1055" />
            </Array>
          </mxGeometry>
        </mxCell>
        <mxCell id="Qtv70iltkPXdNL7PVpSX-103" value="" style="edgeStyle=orthogonalEdgeStyle;rounded=0;orthogonalLoop=1;jettySize=auto;html=1;" parent="Qtv70iltkPXdNL7PVpSX-33" source="GTe_rG1EHSNJOBv9OXUv-22" target="Qtv70iltkPXdNL7PVpSX-102" edge="1">
          <mxGeometry relative="1" as="geometry" />
        </mxCell>
        <mxCell id="Qtv70iltkPXdNL7PVpSX-104" value="" style="edgeStyle=orthogonalEdgeStyle;rounded=0;orthogonalLoop=1;jettySize=auto;html=1;" parent="Qtv70iltkPXdNL7PVpSX-33" source="GTe_rG1EHSNJOBv9OXUv-22" target="Qtv70iltkPXdNL7PVpSX-102" edge="1">
          <mxGeometry relative="1" as="geometry" />
        </mxCell>
        <mxCell id="Qtv70iltkPXdNL7PVpSX-105" value="" style="edgeStyle=orthogonalEdgeStyle;rounded=0;orthogonalLoop=1;jettySize=auto;html=1;" parent="Qtv70iltkPXdNL7PVpSX-33" source="GTe_rG1EHSNJOBv9OXUv-22" target="GTe_rG1EHSNJOBv9OXUv-23" edge="1">
          <mxGeometry relative="1" as="geometry" />
        </mxCell>
        <mxCell id="Qtv70iltkPXdNL7PVpSX-107" value="" style="edgeStyle=orthogonalEdgeStyle;rounded=0;orthogonalLoop=1;jettySize=auto;html=1;" parent="Qtv70iltkPXdNL7PVpSX-33" source="GTe_rG1EHSNJOBv9OXUv-22" target="Qtv70iltkPXdNL7PVpSX-106" edge="1">
          <mxGeometry relative="1" as="geometry" />
        </mxCell>
        <mxCell id="GTe_rG1EHSNJOBv9OXUv-22" value="&lt;span style=&quot;font-size: 22px;&quot;&gt;&lt;b&gt;Comment&lt;/b&gt;&lt;/span&gt;" style="whiteSpace=wrap;html=1;align=center;" parent="Qtv70iltkPXdNL7PVpSX-33" vertex="1">
          <mxGeometry x="420" y="1055" width="240" height="70" as="geometry" />
        </mxCell>
        <mxCell id="GTe_rG1EHSNJOBv9OXUv-33" value="" style="endArrow=none;html=1;rounded=0;exitX=0.5;exitY=1;exitDx=0;exitDy=0;entryX=0.5;entryY=0;entryDx=0;entryDy=0;" parent="Qtv70iltkPXdNL7PVpSX-33" source="GTe_rG1EHSNJOBv9OXUv-23" target="GTe_rG1EHSNJOBv9OXUv-22" edge="1">
          <mxGeometry relative="1" as="geometry">
            <mxPoint x="310" y="1130" as="sourcePoint" />
            <mxPoint x="470" y="1130" as="targetPoint" />
          </mxGeometry>
        </mxCell>
        <mxCell id="GTe_rG1EHSNJOBv9OXUv-34" value="N" style="resizable=0;html=1;whiteSpace=wrap;align=right;verticalAlign=bottom;" parent="GTe_rG1EHSNJOBv9OXUv-33" connectable="0" vertex="1">
          <mxGeometry x="1" relative="1" as="geometry">
            <mxPoint x="65" y="-30" as="offset" />
          </mxGeometry>
        </mxCell>
        <mxCell id="Qtv70iltkPXdNL7PVpSX-47" style="edgeStyle=orthogonalEdgeStyle;rounded=0;orthogonalLoop=1;jettySize=auto;html=1;entryX=0.5;entryY=1;entryDx=0;entryDy=0;" parent="Qtv70iltkPXdNL7PVpSX-33" source="GTe_rG1EHSNJOBv9OXUv-24" target="GTe_rG1EHSNJOBv9OXUv-22" edge="1">
          <mxGeometry relative="1" as="geometry">
            <Array as="points">
              <mxPoint x="230" y="1165" />
              <mxPoint x="460" y="1165" />
              <mxPoint x="460" y="1125" />
            </Array>
          </mxGeometry>
        </mxCell>
        <mxCell id="GTe_rG1EHSNJOBv9OXUv-24" value="Is_Reply" style="shape=rhombus;perimeter=rhombusPerimeter;whiteSpace=wrap;html=1;align=center;" parent="Qtv70iltkPXdNL7PVpSX-33" vertex="1">
          <mxGeometry x="170" y="1095" width="120" height="60" as="geometry" />
        </mxCell>
        <mxCell id="uTlC51wtbgL0At9paiF0-90" value="&lt;font style=&quot;font-size: 25px;&quot;&gt;&lt;b&gt;Website Front&lt;/b&gt;&lt;/font&gt;" style="text;html=1;align=center;verticalAlign=middle;resizable=0;points=[];autosize=1;strokeColor=none;fillColor=none;" parent="Qtv70iltkPXdNL7PVpSX-33" vertex="1">
          <mxGeometry x="10" y="135" width="190" height="40" as="geometry" />
        </mxCell>
        <mxCell id="Qtv70iltkPXdNL7PVpSX-48" value="id" style="ellipse;whiteSpace=wrap;html=1;" parent="Qtv70iltkPXdNL7PVpSX-33" vertex="1">
          <mxGeometry x="590" y="220" width="80" height="80" as="geometry" />
        </mxCell>
        <mxCell id="Qtv70iltkPXdNL7PVpSX-50" value="user_id" style="ellipse;whiteSpace=wrap;html=1;" parent="Qtv70iltkPXdNL7PVpSX-33" vertex="1">
          <mxGeometry x="480" y="105" width="80" height="80" as="geometry" />
        </mxCell>
        <mxCell id="Qtv70iltkPXdNL7PVpSX-51" value="" style="edgeStyle=orthogonalEdgeStyle;rounded=0;orthogonalLoop=1;jettySize=auto;html=1;" parent="Qtv70iltkPXdNL7PVpSX-33" source="GTe_rG1EHSNJOBv9OXUv-18" target="Qtv70iltkPXdNL7PVpSX-50" edge="1">
          <mxGeometry relative="1" as="geometry" />
        </mxCell>
        <mxCell id="Qtv70iltkPXdNL7PVpSX-52" value="first_name" style="ellipse;whiteSpace=wrap;html=1;" parent="Qtv70iltkPXdNL7PVpSX-33" vertex="1">
          <mxGeometry x="100" y="185" width="80" height="80" as="geometry" />
        </mxCell>
        <mxCell id="Qtv70iltkPXdNL7PVpSX-54" value="last_name" style="ellipse;whiteSpace=wrap;html=1;" parent="Qtv70iltkPXdNL7PVpSX-33" vertex="1">
          <mxGeometry x="50" y="265" width="80" height="80" as="geometry" />
        </mxCell>
        <mxCell id="Qtv70iltkPXdNL7PVpSX-56" value="profile_pic" style="ellipse;whiteSpace=wrap;html=1;" parent="Qtv70iltkPXdNL7PVpSX-33" vertex="1">
          <mxGeometry x="150" y="345" width="80" height="80" as="geometry" />
        </mxCell>
        <mxCell id="Qtv70iltkPXdNL7PVpSX-58" value="created_at" style="ellipse;whiteSpace=wrap;html=1;" parent="Qtv70iltkPXdNL7PVpSX-33" vertex="1">
          <mxGeometry x="540" y="325" width="80" height="80" as="geometry" />
        </mxCell>
        <mxCell id="Qtv70iltkPXdNL7PVpSX-60" value="updated_at" style="ellipse;whiteSpace=wrap;html=1;" parent="Qtv70iltkPXdNL7PVpSX-33" vertex="1">
          <mxGeometry x="450" y="325" width="80" height="80" as="geometry" />
        </mxCell>
        <mxCell id="Qtv70iltkPXdNL7PVpSX-62" value="id" style="ellipse;whiteSpace=wrap;html=1;" parent="Qtv70iltkPXdNL7PVpSX-33" vertex="1">
          <mxGeometry y="620" width="80" height="80" as="geometry" />
        </mxCell>
        <mxCell id="Qtv70iltkPXdNL7PVpSX-64" value="user_id" style="ellipse;whiteSpace=wrap;html=1;" parent="Qtv70iltkPXdNL7PVpSX-33" vertex="1">
          <mxGeometry x="20" y="700" width="80" height="80" as="geometry" />
        </mxCell>
        <mxCell id="Qtv70iltkPXdNL7PVpSX-66" value="role_id" style="ellipse;whiteSpace=wrap;html=1;" parent="Qtv70iltkPXdNL7PVpSX-33" vertex="1">
          <mxGeometry x="60" y="780" width="80" height="80" as="geometry" />
        </mxCell>
        <mxCell id="Qtv70iltkPXdNL7PVpSX-69" value="title" style="ellipse;whiteSpace=wrap;html=1;" parent="Qtv70iltkPXdNL7PVpSX-33" vertex="1">
          <mxGeometry x="300" y="660" width="80" height="80" as="geometry" />
        </mxCell>
        <mxCell id="Qtv70iltkPXdNL7PVpSX-71" value="content" style="ellipse;whiteSpace=wrap;html=1;" parent="Qtv70iltkPXdNL7PVpSX-33" vertex="1">
          <mxGeometry x="290" y="750" width="80" height="80" as="geometry" />
        </mxCell>
        <mxCell id="Qtv70iltkPXdNL7PVpSX-73" value="created_at" style="ellipse;whiteSpace=wrap;html=1;" parent="Qtv70iltkPXdNL7PVpSX-33" vertex="1">
          <mxGeometry x="130" y="840" width="80" height="80" as="geometry" />
        </mxCell>
        <mxCell id="Qtv70iltkPXdNL7PVpSX-75" value="update_at" style="ellipse;whiteSpace=wrap;html=1;" parent="Qtv70iltkPXdNL7PVpSX-33" vertex="1">
          <mxGeometry x="210" y="810" width="80" height="80" as="geometry" />
        </mxCell>
        <mxCell id="Qtv70iltkPXdNL7PVpSX-77" value="id" style="ellipse;whiteSpace=wrap;html=1;" parent="Qtv70iltkPXdNL7PVpSX-33" vertex="1">
          <mxGeometry x="390" y="670" width="80" height="80" as="geometry" />
        </mxCell>
        <mxCell id="Qtv70iltkPXdNL7PVpSX-79" value="author_id" style="ellipse;whiteSpace=wrap;html=1;" parent="Qtv70iltkPXdNL7PVpSX-33" vertex="1">
          <mxGeometry x="400" y="770" width="80" height="80" as="geometry" />
        </mxCell>
        <mxCell id="Qtv70iltkPXdNL7PVpSX-81" value="title" style="ellipse;whiteSpace=wrap;html=1;" parent="Qtv70iltkPXdNL7PVpSX-33" vertex="1">
          <mxGeometry x="640" y="670" width="80" height="80" as="geometry" />
        </mxCell>
        <mxCell id="Qtv70iltkPXdNL7PVpSX-83" value="content" style="ellipse;whiteSpace=wrap;html=1;" parent="Qtv70iltkPXdNL7PVpSX-33" vertex="1">
          <mxGeometry x="610" y="750" width="80" height="80" as="geometry" />
        </mxCell>
        <mxCell id="Qtv70iltkPXdNL7PVpSX-85" value="created_at" style="ellipse;whiteSpace=wrap;html=1;" parent="Qtv70iltkPXdNL7PVpSX-33" vertex="1">
          <mxGeometry x="590" y="830" width="80" height="80" as="geometry" />
        </mxCell>
        <mxCell id="Qtv70iltkPXdNL7PVpSX-87" value="updated_at" style="ellipse;whiteSpace=wrap;html=1;" parent="Qtv70iltkPXdNL7PVpSX-33" vertex="1">
          <mxGeometry x="470" y="820" width="80" height="80" as="geometry" />
        </mxCell>
        <mxCell id="Qtv70iltkPXdNL7PVpSX-89" value="id" style="ellipse;whiteSpace=wrap;html=1;" parent="Qtv70iltkPXdNL7PVpSX-33" vertex="1">
          <mxGeometry x="670" y="975" width="80" height="80" as="geometry" />
        </mxCell>
        <mxCell id="Qtv70iltkPXdNL7PVpSX-93" value="article_id" style="ellipse;whiteSpace=wrap;html=1;" parent="Qtv70iltkPXdNL7PVpSX-33" vertex="1">
          <mxGeometry x="710" y="1060" width="80" height="80" as="geometry" />
        </mxCell>
        <mxCell id="Qtv70iltkPXdNL7PVpSX-95" value="user_id" style="ellipse;whiteSpace=wrap;html=1;" parent="Qtv70iltkPXdNL7PVpSX-33" vertex="1">
          <mxGeometry x="660" y="1140" width="80" height="80" as="geometry" />
        </mxCell>
        <mxCell id="Qtv70iltkPXdNL7PVpSX-97" value="content" style="ellipse;whiteSpace=wrap;html=1;" parent="Qtv70iltkPXdNL7PVpSX-33" vertex="1">
          <mxGeometry x="330" y="1075" width="80" height="80" as="geometry" />
        </mxCell>
        <mxCell id="Qtv70iltkPXdNL7PVpSX-100" value="comment_id" style="ellipse;whiteSpace=wrap;html=1;" parent="Qtv70iltkPXdNL7PVpSX-33" vertex="1">
          <mxGeometry x="340" y="955" width="80" height="80" as="geometry" />
        </mxCell>
        <mxCell id="Qtv70iltkPXdNL7PVpSX-102" value="created_id" style="ellipse;whiteSpace=wrap;html=1;" parent="Qtv70iltkPXdNL7PVpSX-33" vertex="1">
          <mxGeometry x="570" y="1170" width="80" height="80" as="geometry" />
        </mxCell>
        <mxCell id="Qtv70iltkPXdNL7PVpSX-106" value="updated_id" style="ellipse;whiteSpace=wrap;html=1;" parent="Qtv70iltkPXdNL7PVpSX-33" vertex="1">
          <mxGeometry x="470" y="1180" width="80" height="80" as="geometry" />
        </mxCell>
        <mxCell id="Qtv70iltkPXdNL7PVpSX-108" value="" style="swimlane;startSize=0;" parent="1" vertex="1">
          <mxGeometry x="-940" y="770" width="2080" height="2570" as="geometry" />
        </mxCell>
        <mxCell id="Qtv70iltkPXdNL7PVpSX-175" style="edgeStyle=orthogonalEdgeStyle;rounded=0;orthogonalLoop=1;jettySize=auto;html=1;" parent="Qtv70iltkPXdNL7PVpSX-108" source="GTe_rG1EHSNJOBv9OXUv-55" target="Qtv70iltkPXdNL7PVpSX-174" edge="1">
          <mxGeometry relative="1" as="geometry" />
        </mxCell>
        <mxCell id="Qtv70iltkPXdNL7PVpSX-176" style="edgeStyle=orthogonalEdgeStyle;rounded=0;orthogonalLoop=1;jettySize=auto;html=1;" parent="Qtv70iltkPXdNL7PVpSX-108" source="GTe_rG1EHSNJOBv9OXUv-55" target="Qtv70iltkPXdNL7PVpSX-166" edge="1">
          <mxGeometry relative="1" as="geometry" />
        </mxCell>
        <mxCell id="Qtv70iltkPXdNL7PVpSX-177" style="edgeStyle=orthogonalEdgeStyle;rounded=0;orthogonalLoop=1;jettySize=auto;html=1;" parent="Qtv70iltkPXdNL7PVpSX-108" source="GTe_rG1EHSNJOBv9OXUv-55" target="Qtv70iltkPXdNL7PVpSX-167" edge="1">
          <mxGeometry relative="1" as="geometry" />
        </mxCell>
        <mxCell id="Qtv70iltkPXdNL7PVpSX-178" style="edgeStyle=orthogonalEdgeStyle;rounded=0;orthogonalLoop=1;jettySize=auto;html=1;" parent="Qtv70iltkPXdNL7PVpSX-108" source="GTe_rG1EHSNJOBv9OXUv-55" target="Qtv70iltkPXdNL7PVpSX-168" edge="1">
          <mxGeometry relative="1" as="geometry" />
        </mxCell>
        <mxCell id="Qtv70iltkPXdNL7PVpSX-179" style="edgeStyle=orthogonalEdgeStyle;rounded=0;orthogonalLoop=1;jettySize=auto;html=1;" parent="Qtv70iltkPXdNL7PVpSX-108" source="GTe_rG1EHSNJOBv9OXUv-55" target="Qtv70iltkPXdNL7PVpSX-169" edge="1">
          <mxGeometry relative="1" as="geometry" />
        </mxCell>
        <mxCell id="Qtv70iltkPXdNL7PVpSX-180" style="edgeStyle=orthogonalEdgeStyle;rounded=0;orthogonalLoop=1;jettySize=auto;html=1;" parent="Qtv70iltkPXdNL7PVpSX-108" source="GTe_rG1EHSNJOBv9OXUv-55" target="Qtv70iltkPXdNL7PVpSX-170" edge="1">
          <mxGeometry relative="1" as="geometry" />
        </mxCell>
        <mxCell id="Qtv70iltkPXdNL7PVpSX-181" style="edgeStyle=orthogonalEdgeStyle;rounded=0;orthogonalLoop=1;jettySize=auto;html=1;" parent="Qtv70iltkPXdNL7PVpSX-108" source="GTe_rG1EHSNJOBv9OXUv-55" target="Qtv70iltkPXdNL7PVpSX-172" edge="1">
          <mxGeometry relative="1" as="geometry">
            <Array as="points">
              <mxPoint x="2025" y="320" />
            </Array>
          </mxGeometry>
        </mxCell>
        <mxCell id="Qtv70iltkPXdNL7PVpSX-184" value="" style="edgeStyle=orthogonalEdgeStyle;rounded=0;orthogonalLoop=1;jettySize=auto;html=1;" parent="Qtv70iltkPXdNL7PVpSX-108" source="GTe_rG1EHSNJOBv9OXUv-55" target="Qtv70iltkPXdNL7PVpSX-183" edge="1">
          <mxGeometry relative="1" as="geometry" />
        </mxCell>
        <mxCell id="Qtv70iltkPXdNL7PVpSX-187" style="edgeStyle=orthogonalEdgeStyle;rounded=0;orthogonalLoop=1;jettySize=auto;html=1;" parent="Qtv70iltkPXdNL7PVpSX-108" source="GTe_rG1EHSNJOBv9OXUv-55" target="Qtv70iltkPXdNL7PVpSX-171" edge="1">
          <mxGeometry relative="1" as="geometry" />
        </mxCell>
        <mxCell id="GTe_rG1EHSNJOBv9OXUv-55" value="&lt;span style=&quot;font-size: 22px;&quot;&gt;&lt;b&gt;Personnel&lt;/b&gt;&lt;/span&gt;" style="whiteSpace=wrap;html=1;align=center;" parent="Qtv70iltkPXdNL7PVpSX-108" vertex="1">
          <mxGeometry x="1690" y="250" width="240" height="70" as="geometry" />
        </mxCell>
        <mxCell id="VakFBbvGxdhkE8vkGhw--70" value="" style="edgeStyle=orthogonalEdgeStyle;rounded=0;orthogonalLoop=1;jettySize=auto;html=1;" edge="1" parent="Qtv70iltkPXdNL7PVpSX-108" source="uTlC51wtbgL0At9paiF0-3" target="VakFBbvGxdhkE8vkGhw--69">
          <mxGeometry relative="1" as="geometry" />
        </mxCell>
        <mxCell id="VakFBbvGxdhkE8vkGhw--71" value="" style="edgeStyle=orthogonalEdgeStyle;rounded=0;orthogonalLoop=1;jettySize=auto;html=1;" edge="1" parent="Qtv70iltkPXdNL7PVpSX-108" source="uTlC51wtbgL0At9paiF0-3" target="VakFBbvGxdhkE8vkGhw--69">
          <mxGeometry relative="1" as="geometry" />
        </mxCell>
        <mxCell id="VakFBbvGxdhkE8vkGhw--73" value="" style="edgeStyle=orthogonalEdgeStyle;rounded=0;orthogonalLoop=1;jettySize=auto;html=1;" edge="1" parent="Qtv70iltkPXdNL7PVpSX-108" source="uTlC51wtbgL0At9paiF0-3" target="VakFBbvGxdhkE8vkGhw--72">
          <mxGeometry relative="1" as="geometry" />
        </mxCell>
        <mxCell id="VakFBbvGxdhkE8vkGhw--74" value="" style="edgeStyle=orthogonalEdgeStyle;rounded=0;orthogonalLoop=1;jettySize=auto;html=1;" edge="1" parent="Qtv70iltkPXdNL7PVpSX-108" source="uTlC51wtbgL0At9paiF0-3" target="VakFBbvGxdhkE8vkGhw--72">
          <mxGeometry relative="1" as="geometry" />
        </mxCell>
        <mxCell id="VakFBbvGxdhkE8vkGhw--78" value="" style="edgeStyle=orthogonalEdgeStyle;rounded=0;orthogonalLoop=1;jettySize=auto;html=1;" edge="1" parent="Qtv70iltkPXdNL7PVpSX-108" source="uTlC51wtbgL0At9paiF0-3" target="VakFBbvGxdhkE8vkGhw--77">
          <mxGeometry relative="1" as="geometry" />
        </mxCell>
        <mxCell id="VakFBbvGxdhkE8vkGhw--81" value="" style="edgeStyle=orthogonalEdgeStyle;rounded=0;orthogonalLoop=1;jettySize=auto;html=1;" edge="1" parent="Qtv70iltkPXdNL7PVpSX-108" source="uTlC51wtbgL0At9paiF0-3" target="VakFBbvGxdhkE8vkGhw--80">
          <mxGeometry relative="1" as="geometry" />
        </mxCell>
        <mxCell id="VakFBbvGxdhkE8vkGhw--82" value="" style="edgeStyle=orthogonalEdgeStyle;rounded=0;orthogonalLoop=1;jettySize=auto;html=1;" edge="1" parent="Qtv70iltkPXdNL7PVpSX-108" source="uTlC51wtbgL0At9paiF0-3" target="uTlC51wtbgL0At9paiF0-40">
          <mxGeometry relative="1" as="geometry" />
        </mxCell>
        <mxCell id="VakFBbvGxdhkE8vkGhw--84" value="" style="edgeStyle=orthogonalEdgeStyle;rounded=0;orthogonalLoop=1;jettySize=auto;html=1;" edge="1" parent="Qtv70iltkPXdNL7PVpSX-108" source="uTlC51wtbgL0At9paiF0-3" target="VakFBbvGxdhkE8vkGhw--83">
          <mxGeometry relative="1" as="geometry" />
        </mxCell>
        <mxCell id="VakFBbvGxdhkE8vkGhw--86" value="" style="edgeStyle=orthogonalEdgeStyle;rounded=0;orthogonalLoop=1;jettySize=auto;html=1;" edge="1" parent="Qtv70iltkPXdNL7PVpSX-108" source="uTlC51wtbgL0At9paiF0-3" target="VakFBbvGxdhkE8vkGhw--85">
          <mxGeometry relative="1" as="geometry" />
        </mxCell>
        <mxCell id="VakFBbvGxdhkE8vkGhw--88" value="" style="edgeStyle=orthogonalEdgeStyle;rounded=0;orthogonalLoop=1;jettySize=auto;html=1;" edge="1" parent="Qtv70iltkPXdNL7PVpSX-108" source="uTlC51wtbgL0At9paiF0-3" target="VakFBbvGxdhkE8vkGhw--87">
          <mxGeometry relative="1" as="geometry" />
        </mxCell>
        <mxCell id="VakFBbvGxdhkE8vkGhw--90" value="" style="edgeStyle=orthogonalEdgeStyle;rounded=0;orthogonalLoop=1;jettySize=auto;html=1;" edge="1" parent="Qtv70iltkPXdNL7PVpSX-108" source="uTlC51wtbgL0At9paiF0-3" target="VakFBbvGxdhkE8vkGhw--89">
          <mxGeometry relative="1" as="geometry" />
        </mxCell>
        <mxCell id="VakFBbvGxdhkE8vkGhw--92" value="" style="edgeStyle=orthogonalEdgeStyle;rounded=0;orthogonalLoop=1;jettySize=auto;html=1;" edge="1" parent="Qtv70iltkPXdNL7PVpSX-108" source="uTlC51wtbgL0At9paiF0-3" target="VakFBbvGxdhkE8vkGhw--91">
          <mxGeometry relative="1" as="geometry" />
        </mxCell>
        <mxCell id="VakFBbvGxdhkE8vkGhw--94" value="" style="edgeStyle=orthogonalEdgeStyle;rounded=0;orthogonalLoop=1;jettySize=auto;html=1;" edge="1" parent="Qtv70iltkPXdNL7PVpSX-108" source="uTlC51wtbgL0At9paiF0-3" target="VakFBbvGxdhkE8vkGhw--93">
          <mxGeometry relative="1" as="geometry" />
        </mxCell>
        <mxCell id="uTlC51wtbgL0At9paiF0-3" value="&lt;span style=&quot;font-size: 22px;&quot;&gt;&lt;b&gt;Enrollment&lt;/b&gt;&lt;/span&gt;" style="whiteSpace=wrap;html=1;align=center;" parent="Qtv70iltkPXdNL7PVpSX-108" vertex="1">
          <mxGeometry x="700" y="770" width="240" height="70" as="geometry" />
        </mxCell>
        <mxCell id="uTlC51wtbgL0At9paiF0-39" value="has" style="shape=rhombus;perimeter=rhombusPerimeter;whiteSpace=wrap;html=1;align=center;" parent="Qtv70iltkPXdNL7PVpSX-108" vertex="1">
          <mxGeometry x="532.5" y="510" width="120" height="60" as="geometry" />
        </mxCell>
        <mxCell id="uTlC51wtbgL0At9paiF0-43" value="" style="shape=link;html=1;rounded=0;exitX=0.5;exitY=1;exitDx=0;exitDy=0;entryX=0.5;entryY=0;entryDx=0;entryDy=0;" parent="Qtv70iltkPXdNL7PVpSX-108" source="uTlC51wtbgL0At9paiF0-39" target="uTlC51wtbgL0At9paiF0-3" edge="1">
          <mxGeometry relative="1" as="geometry">
            <mxPoint x="1080" y="1260" as="sourcePoint" />
            <mxPoint x="1240" y="1260" as="targetPoint" />
          </mxGeometry>
        </mxCell>
        <mxCell id="uTlC51wtbgL0At9paiF0-44" value="1" style="resizable=0;html=1;whiteSpace=wrap;align=right;verticalAlign=bottom;" parent="uTlC51wtbgL0At9paiF0-43" connectable="0" vertex="1">
          <mxGeometry x="1" relative="1" as="geometry">
            <mxPoint x="-60" y="35" as="offset" />
          </mxGeometry>
        </mxCell>
        <mxCell id="Qtv70iltkPXdNL7PVpSX-113" value="" style="edgeStyle=orthogonalEdgeStyle;rounded=0;orthogonalLoop=1;jettySize=auto;html=1;" parent="Qtv70iltkPXdNL7PVpSX-108" source="GTe_rG1EHSNJOBv9OXUv-52" target="Qtv70iltkPXdNL7PVpSX-112" edge="1">
          <mxGeometry relative="1" as="geometry" />
        </mxCell>
        <mxCell id="Qtv70iltkPXdNL7PVpSX-115" value="" style="edgeStyle=orthogonalEdgeStyle;rounded=0;orthogonalLoop=1;jettySize=auto;html=1;" parent="Qtv70iltkPXdNL7PVpSX-108" source="GTe_rG1EHSNJOBv9OXUv-52" target="Qtv70iltkPXdNL7PVpSX-114" edge="1">
          <mxGeometry relative="1" as="geometry" />
        </mxCell>
        <mxCell id="Qtv70iltkPXdNL7PVpSX-117" value="" style="edgeStyle=orthogonalEdgeStyle;rounded=0;orthogonalLoop=1;jettySize=auto;html=1;" parent="Qtv70iltkPXdNL7PVpSX-108" source="GTe_rG1EHSNJOBv9OXUv-52" target="Qtv70iltkPXdNL7PVpSX-116" edge="1">
          <mxGeometry relative="1" as="geometry" />
        </mxCell>
        <mxCell id="Qtv70iltkPXdNL7PVpSX-120" value="" style="edgeStyle=orthogonalEdgeStyle;rounded=0;orthogonalLoop=1;jettySize=auto;html=1;" parent="Qtv70iltkPXdNL7PVpSX-108" source="GTe_rG1EHSNJOBv9OXUv-52" target="Qtv70iltkPXdNL7PVpSX-119" edge="1">
          <mxGeometry relative="1" as="geometry" />
        </mxCell>
        <mxCell id="Qtv70iltkPXdNL7PVpSX-122" value="" style="edgeStyle=orthogonalEdgeStyle;rounded=0;orthogonalLoop=1;jettySize=auto;html=1;" parent="Qtv70iltkPXdNL7PVpSX-108" source="GTe_rG1EHSNJOBv9OXUv-52" target="Qtv70iltkPXdNL7PVpSX-121" edge="1">
          <mxGeometry relative="1" as="geometry" />
        </mxCell>
        <mxCell id="Qtv70iltkPXdNL7PVpSX-124" value="" style="edgeStyle=orthogonalEdgeStyle;rounded=0;orthogonalLoop=1;jettySize=auto;html=1;" parent="Qtv70iltkPXdNL7PVpSX-108" source="GTe_rG1EHSNJOBv9OXUv-52" target="Qtv70iltkPXdNL7PVpSX-123" edge="1">
          <mxGeometry relative="1" as="geometry" />
        </mxCell>
        <mxCell id="Qtv70iltkPXdNL7PVpSX-127" value="" style="edgeStyle=orthogonalEdgeStyle;rounded=0;orthogonalLoop=1;jettySize=auto;html=1;" parent="Qtv70iltkPXdNL7PVpSX-108" source="GTe_rG1EHSNJOBv9OXUv-52" target="Qtv70iltkPXdNL7PVpSX-126" edge="1">
          <mxGeometry relative="1" as="geometry" />
        </mxCell>
        <mxCell id="Qtv70iltkPXdNL7PVpSX-129" value="" style="edgeStyle=orthogonalEdgeStyle;rounded=0;orthogonalLoop=1;jettySize=auto;html=1;" parent="Qtv70iltkPXdNL7PVpSX-108" source="GTe_rG1EHSNJOBv9OXUv-52" target="Qtv70iltkPXdNL7PVpSX-128" edge="1">
          <mxGeometry relative="1" as="geometry" />
        </mxCell>
        <mxCell id="Qtv70iltkPXdNL7PVpSX-131" value="" style="edgeStyle=orthogonalEdgeStyle;rounded=0;orthogonalLoop=1;jettySize=auto;html=1;" parent="Qtv70iltkPXdNL7PVpSX-108" source="GTe_rG1EHSNJOBv9OXUv-52" target="Qtv70iltkPXdNL7PVpSX-130" edge="1">
          <mxGeometry relative="1" as="geometry" />
        </mxCell>
        <mxCell id="Qtv70iltkPXdNL7PVpSX-132" value="" style="edgeStyle=orthogonalEdgeStyle;rounded=0;orthogonalLoop=1;jettySize=auto;html=1;" parent="Qtv70iltkPXdNL7PVpSX-108" source="GTe_rG1EHSNJOBv9OXUv-52" target="Qtv70iltkPXdNL7PVpSX-130" edge="1">
          <mxGeometry relative="1" as="geometry" />
        </mxCell>
        <mxCell id="Qtv70iltkPXdNL7PVpSX-134" value="" style="edgeStyle=orthogonalEdgeStyle;rounded=0;orthogonalLoop=1;jettySize=auto;html=1;" parent="Qtv70iltkPXdNL7PVpSX-108" source="GTe_rG1EHSNJOBv9OXUv-52" target="Qtv70iltkPXdNL7PVpSX-133" edge="1">
          <mxGeometry relative="1" as="geometry" />
        </mxCell>
        <mxCell id="Qtv70iltkPXdNL7PVpSX-136" value="" style="edgeStyle=orthogonalEdgeStyle;rounded=0;orthogonalLoop=1;jettySize=auto;html=1;" parent="Qtv70iltkPXdNL7PVpSX-108" source="GTe_rG1EHSNJOBv9OXUv-52" target="Qtv70iltkPXdNL7PVpSX-135" edge="1">
          <mxGeometry relative="1" as="geometry">
            <Array as="points">
              <mxPoint x="290" y="440" />
            </Array>
          </mxGeometry>
        </mxCell>
        <mxCell id="Qtv70iltkPXdNL7PVpSX-163" value="" style="edgeStyle=orthogonalEdgeStyle;rounded=0;orthogonalLoop=1;jettySize=auto;html=1;" parent="Qtv70iltkPXdNL7PVpSX-108" source="GTe_rG1EHSNJOBv9OXUv-52" target="Qtv70iltkPXdNL7PVpSX-162" edge="1">
          <mxGeometry relative="1" as="geometry" />
        </mxCell>
        <mxCell id="Qtv70iltkPXdNL7PVpSX-165" value="" style="edgeStyle=orthogonalEdgeStyle;rounded=0;orthogonalLoop=1;jettySize=auto;html=1;" parent="Qtv70iltkPXdNL7PVpSX-108" source="GTe_rG1EHSNJOBv9OXUv-52" target="Qtv70iltkPXdNL7PVpSX-164" edge="1">
          <mxGeometry relative="1" as="geometry" />
        </mxCell>
        <mxCell id="GTe_rG1EHSNJOBv9OXUv-52" value="&lt;span style=&quot;font-size: 22px;&quot;&gt;&lt;b&gt;Student&lt;/b&gt;&lt;/span&gt;" style="whiteSpace=wrap;html=1;align=center;" parent="Qtv70iltkPXdNL7PVpSX-108" vertex="1">
          <mxGeometry x="285" y="240" width="240" height="70" as="geometry" />
        </mxCell>
        <mxCell id="uTlC51wtbgL0At9paiF0-41" value="" style="shape=link;html=1;rounded=0;entryX=0.5;entryY=1;entryDx=0;entryDy=0;width=0;" parent="Qtv70iltkPXdNL7PVpSX-108" source="uTlC51wtbgL0At9paiF0-39" target="GTe_rG1EHSNJOBv9OXUv-52" edge="1">
          <mxGeometry relative="1" as="geometry">
            <mxPoint x="1080" y="1260" as="sourcePoint" />
            <mxPoint x="1240" y="1260" as="targetPoint" />
          </mxGeometry>
        </mxCell>
        <mxCell id="uTlC51wtbgL0At9paiF0-42" value="N" style="resizable=0;html=1;whiteSpace=wrap;align=right;verticalAlign=bottom;" parent="uTlC51wtbgL0At9paiF0-41" connectable="0" vertex="1">
          <mxGeometry x="1" relative="1" as="geometry">
            <mxPoint x="20" y="-50" as="offset" />
          </mxGeometry>
        </mxCell>
        <mxCell id="uTlC51wtbgL0At9paiF0-40" value="belongs_to" style="shape=rhombus;perimeter=rhombusPerimeter;whiteSpace=wrap;html=1;align=center;" parent="Qtv70iltkPXdNL7PVpSX-108" vertex="1">
          <mxGeometry x="900" y="1000" width="120" height="60" as="geometry" />
        </mxCell>
        <mxCell id="uTlC51wtbgL0At9paiF0-48" value="" style="shape=link;html=1;rounded=0;exitX=0.5;exitY=0;exitDx=0;exitDy=0;entryX=0.5;entryY=1;entryDx=0;entryDy=0;" parent="Qtv70iltkPXdNL7PVpSX-108" source="uTlC51wtbgL0At9paiF0-40" target="uTlC51wtbgL0At9paiF0-3" edge="1">
          <mxGeometry relative="1" as="geometry">
            <mxPoint x="980" y="1110" as="sourcePoint" />
            <mxPoint x="1140" y="1110" as="targetPoint" />
          </mxGeometry>
        </mxCell>
        <mxCell id="uTlC51wtbgL0At9paiF0-49" value="N" style="resizable=0;html=1;whiteSpace=wrap;align=right;verticalAlign=bottom;" parent="uTlC51wtbgL0At9paiF0-48" connectable="0" vertex="1">
          <mxGeometry x="1" relative="1" as="geometry">
            <mxPoint x="50" y="40" as="offset" />
          </mxGeometry>
        </mxCell>
        <mxCell id="VakFBbvGxdhkE8vkGhw--2" value="" style="edgeStyle=orthogonalEdgeStyle;rounded=0;orthogonalLoop=1;jettySize=auto;html=1;" edge="1" parent="Qtv70iltkPXdNL7PVpSX-108" source="GTe_rG1EHSNJOBv9OXUv-57" target="VakFBbvGxdhkE8vkGhw--1">
          <mxGeometry relative="1" as="geometry" />
        </mxCell>
        <mxCell id="VakFBbvGxdhkE8vkGhw--4" value="" style="edgeStyle=orthogonalEdgeStyle;rounded=0;orthogonalLoop=1;jettySize=auto;html=1;" edge="1" parent="Qtv70iltkPXdNL7PVpSX-108" source="GTe_rG1EHSNJOBv9OXUv-57" target="VakFBbvGxdhkE8vkGhw--3">
          <mxGeometry relative="1" as="geometry" />
        </mxCell>
        <mxCell id="VakFBbvGxdhkE8vkGhw--8" value="" style="edgeStyle=orthogonalEdgeStyle;rounded=0;orthogonalLoop=1;jettySize=auto;html=1;" edge="1" parent="Qtv70iltkPXdNL7PVpSX-108" source="GTe_rG1EHSNJOBv9OXUv-57" target="VakFBbvGxdhkE8vkGhw--7">
          <mxGeometry relative="1" as="geometry" />
        </mxCell>
        <mxCell id="VakFBbvGxdhkE8vkGhw--10" value="" style="edgeStyle=orthogonalEdgeStyle;rounded=0;orthogonalLoop=1;jettySize=auto;html=1;" edge="1" parent="Qtv70iltkPXdNL7PVpSX-108" source="GTe_rG1EHSNJOBv9OXUv-57" target="VakFBbvGxdhkE8vkGhw--9">
          <mxGeometry relative="1" as="geometry">
            <Array as="points">
              <mxPoint x="1060" y="1360" />
              <mxPoint x="840" y="1360" />
            </Array>
          </mxGeometry>
        </mxCell>
        <mxCell id="VakFBbvGxdhkE8vkGhw--12" value="" style="edgeStyle=orthogonalEdgeStyle;rounded=0;orthogonalLoop=1;jettySize=auto;html=1;" edge="1" parent="Qtv70iltkPXdNL7PVpSX-108" source="GTe_rG1EHSNJOBv9OXUv-57" target="VakFBbvGxdhkE8vkGhw--11">
          <mxGeometry relative="1" as="geometry" />
        </mxCell>
        <mxCell id="VakFBbvGxdhkE8vkGhw--14" value="" style="edgeStyle=orthogonalEdgeStyle;rounded=0;orthogonalLoop=1;jettySize=auto;html=1;" edge="1" parent="Qtv70iltkPXdNL7PVpSX-108" source="GTe_rG1EHSNJOBv9OXUv-57" target="VakFBbvGxdhkE8vkGhw--13">
          <mxGeometry relative="1" as="geometry" />
        </mxCell>
        <mxCell id="VakFBbvGxdhkE8vkGhw--17" value="" style="edgeStyle=orthogonalEdgeStyle;rounded=0;orthogonalLoop=1;jettySize=auto;html=1;" edge="1" parent="Qtv70iltkPXdNL7PVpSX-108" source="GTe_rG1EHSNJOBv9OXUv-57" target="VakFBbvGxdhkE8vkGhw--16">
          <mxGeometry relative="1" as="geometry" />
        </mxCell>
        <mxCell id="VakFBbvGxdhkE8vkGhw--19" value="" style="edgeStyle=orthogonalEdgeStyle;rounded=0;orthogonalLoop=1;jettySize=auto;html=1;" edge="1" parent="Qtv70iltkPXdNL7PVpSX-108" source="GTe_rG1EHSNJOBv9OXUv-57" target="VakFBbvGxdhkE8vkGhw--18">
          <mxGeometry relative="1" as="geometry" />
        </mxCell>
        <mxCell id="VakFBbvGxdhkE8vkGhw--23" value="" style="edgeStyle=orthogonalEdgeStyle;rounded=0;orthogonalLoop=1;jettySize=auto;html=1;" edge="1" parent="Qtv70iltkPXdNL7PVpSX-108" source="GTe_rG1EHSNJOBv9OXUv-57" target="VakFBbvGxdhkE8vkGhw--22">
          <mxGeometry relative="1" as="geometry" />
        </mxCell>
        <mxCell id="VakFBbvGxdhkE8vkGhw--25" value="" style="edgeStyle=orthogonalEdgeStyle;rounded=0;orthogonalLoop=1;jettySize=auto;html=1;" edge="1" parent="Qtv70iltkPXdNL7PVpSX-108" source="GTe_rG1EHSNJOBv9OXUv-57" target="VakFBbvGxdhkE8vkGhw--24">
          <mxGeometry relative="1" as="geometry" />
        </mxCell>
        <mxCell id="VakFBbvGxdhkE8vkGhw--27" value="" style="edgeStyle=orthogonalEdgeStyle;rounded=0;orthogonalLoop=1;jettySize=auto;html=1;" edge="1" parent="Qtv70iltkPXdNL7PVpSX-108" source="GTe_rG1EHSNJOBv9OXUv-57" target="VakFBbvGxdhkE8vkGhw--26">
          <mxGeometry relative="1" as="geometry" />
        </mxCell>
        <mxCell id="VakFBbvGxdhkE8vkGhw--108" style="edgeStyle=orthogonalEdgeStyle;rounded=0;orthogonalLoop=1;jettySize=auto;html=1;" edge="1" parent="Qtv70iltkPXdNL7PVpSX-108" source="GTe_rG1EHSNJOBv9OXUv-57" target="VakFBbvGxdhkE8vkGhw--107">
          <mxGeometry relative="1" as="geometry">
            <Array as="points">
              <mxPoint x="1160" y="1620" />
            </Array>
          </mxGeometry>
        </mxCell>
        <mxCell id="GTe_rG1EHSNJOBv9OXUv-57" value="&lt;span style=&quot;font-size: 22px;&quot;&gt;&lt;b&gt;Class&lt;/b&gt;&lt;/span&gt;" style="whiteSpace=wrap;html=1;align=center;" parent="Qtv70iltkPXdNL7PVpSX-108" vertex="1">
          <mxGeometry x="940" y="1240" width="240" height="70" as="geometry" />
        </mxCell>
        <mxCell id="uTlC51wtbgL0At9paiF0-45" value="" style="endArrow=none;html=1;rounded=0;exitX=0.5;exitY=1;exitDx=0;exitDy=0;entryX=0.25;entryY=0;entryDx=0;entryDy=0;" parent="Qtv70iltkPXdNL7PVpSX-108" source="uTlC51wtbgL0At9paiF0-40" target="GTe_rG1EHSNJOBv9OXUv-57" edge="1">
          <mxGeometry relative="1" as="geometry">
            <mxPoint x="1080" y="1260" as="sourcePoint" />
            <mxPoint x="1240" y="1260" as="targetPoint" />
          </mxGeometry>
        </mxCell>
        <mxCell id="uTlC51wtbgL0At9paiF0-46" value="1" style="resizable=0;html=1;whiteSpace=wrap;align=right;verticalAlign=bottom;" parent="uTlC51wtbgL0At9paiF0-45" connectable="0" vertex="1">
          <mxGeometry x="1" relative="1" as="geometry">
            <mxPoint x="-40" y="-60" as="offset" />
          </mxGeometry>
        </mxCell>
        <mxCell id="uTlC51wtbgL0At9paiF0-16" value="Teaches" style="shape=rhombus;perimeter=rhombusPerimeter;whiteSpace=wrap;html=1;align=center;" parent="Qtv70iltkPXdNL7PVpSX-108" vertex="1">
          <mxGeometry x="970" y="870" width="120" height="60" as="geometry" />
        </mxCell>
        <mxCell id="uTlC51wtbgL0At9paiF0-19" value="" style="endArrow=none;html=1;rounded=0;exitX=0.5;exitY=0;exitDx=0;exitDy=0;" parent="Qtv70iltkPXdNL7PVpSX-108" source="GTe_rG1EHSNJOBv9OXUv-57" target="uTlC51wtbgL0At9paiF0-16" edge="1">
          <mxGeometry relative="1" as="geometry">
            <mxPoint x="950" y="1180" as="sourcePoint" />
            <mxPoint x="1110" y="1180" as="targetPoint" />
          </mxGeometry>
        </mxCell>
        <mxCell id="uTlC51wtbgL0At9paiF0-20" value="N" style="resizable=0;html=1;whiteSpace=wrap;align=right;verticalAlign=bottom;" parent="uTlC51wtbgL0At9paiF0-19" connectable="0" vertex="1">
          <mxGeometry x="1" relative="1" as="geometry" />
        </mxCell>
        <mxCell id="Qtv70iltkPXdNL7PVpSX-138" value="" style="edgeStyle=orthogonalEdgeStyle;rounded=0;orthogonalLoop=1;jettySize=auto;html=1;" parent="Qtv70iltkPXdNL7PVpSX-108" source="GTe_rG1EHSNJOBv9OXUv-53" target="Qtv70iltkPXdNL7PVpSX-137" edge="1">
          <mxGeometry relative="1" as="geometry" />
        </mxCell>
        <mxCell id="Qtv70iltkPXdNL7PVpSX-140" value="" style="edgeStyle=orthogonalEdgeStyle;rounded=0;orthogonalLoop=1;jettySize=auto;html=1;" parent="Qtv70iltkPXdNL7PVpSX-108" source="GTe_rG1EHSNJOBv9OXUv-53" target="Qtv70iltkPXdNL7PVpSX-139" edge="1">
          <mxGeometry relative="1" as="geometry" />
        </mxCell>
        <mxCell id="Qtv70iltkPXdNL7PVpSX-142" value="" style="edgeStyle=orthogonalEdgeStyle;rounded=0;orthogonalLoop=1;jettySize=auto;html=1;" parent="Qtv70iltkPXdNL7PVpSX-108" source="GTe_rG1EHSNJOBv9OXUv-53" target="Qtv70iltkPXdNL7PVpSX-141" edge="1">
          <mxGeometry relative="1" as="geometry" />
        </mxCell>
        <mxCell id="Qtv70iltkPXdNL7PVpSX-144" value="" style="edgeStyle=orthogonalEdgeStyle;rounded=0;orthogonalLoop=1;jettySize=auto;html=1;" parent="Qtv70iltkPXdNL7PVpSX-108" source="GTe_rG1EHSNJOBv9OXUv-53" target="Qtv70iltkPXdNL7PVpSX-143" edge="1">
          <mxGeometry relative="1" as="geometry" />
        </mxCell>
        <mxCell id="Qtv70iltkPXdNL7PVpSX-146" value="" style="edgeStyle=orthogonalEdgeStyle;rounded=0;orthogonalLoop=1;jettySize=auto;html=1;" parent="Qtv70iltkPXdNL7PVpSX-108" source="GTe_rG1EHSNJOBv9OXUv-53" target="Qtv70iltkPXdNL7PVpSX-145" edge="1">
          <mxGeometry relative="1" as="geometry" />
        </mxCell>
        <mxCell id="Qtv70iltkPXdNL7PVpSX-148" value="" style="edgeStyle=orthogonalEdgeStyle;rounded=0;orthogonalLoop=1;jettySize=auto;html=1;" parent="Qtv70iltkPXdNL7PVpSX-108" source="GTe_rG1EHSNJOBv9OXUv-53" target="Qtv70iltkPXdNL7PVpSX-147" edge="1">
          <mxGeometry relative="1" as="geometry" />
        </mxCell>
        <mxCell id="Qtv70iltkPXdNL7PVpSX-150" value="" style="edgeStyle=orthogonalEdgeStyle;rounded=0;orthogonalLoop=1;jettySize=auto;html=1;" parent="Qtv70iltkPXdNL7PVpSX-108" source="GTe_rG1EHSNJOBv9OXUv-53" target="Qtv70iltkPXdNL7PVpSX-149" edge="1">
          <mxGeometry relative="1" as="geometry" />
        </mxCell>
        <mxCell id="Qtv70iltkPXdNL7PVpSX-152" value="" style="edgeStyle=orthogonalEdgeStyle;rounded=0;orthogonalLoop=1;jettySize=auto;html=1;" parent="Qtv70iltkPXdNL7PVpSX-108" source="GTe_rG1EHSNJOBv9OXUv-53" target="Qtv70iltkPXdNL7PVpSX-151" edge="1">
          <mxGeometry relative="1" as="geometry" />
        </mxCell>
        <mxCell id="Qtv70iltkPXdNL7PVpSX-156" value="" style="edgeStyle=orthogonalEdgeStyle;rounded=0;orthogonalLoop=1;jettySize=auto;html=1;" parent="Qtv70iltkPXdNL7PVpSX-108" source="GTe_rG1EHSNJOBv9OXUv-53" target="Qtv70iltkPXdNL7PVpSX-155" edge="1">
          <mxGeometry relative="1" as="geometry" />
        </mxCell>
        <mxCell id="Qtv70iltkPXdNL7PVpSX-157" value="" style="edgeStyle=orthogonalEdgeStyle;rounded=0;orthogonalLoop=1;jettySize=auto;html=1;" parent="Qtv70iltkPXdNL7PVpSX-108" source="GTe_rG1EHSNJOBv9OXUv-53" target="Qtv70iltkPXdNL7PVpSX-155" edge="1">
          <mxGeometry relative="1" as="geometry" />
        </mxCell>
        <mxCell id="Qtv70iltkPXdNL7PVpSX-159" value="" style="edgeStyle=orthogonalEdgeStyle;rounded=0;orthogonalLoop=1;jettySize=auto;html=1;" parent="Qtv70iltkPXdNL7PVpSX-108" source="GTe_rG1EHSNJOBv9OXUv-53" target="Qtv70iltkPXdNL7PVpSX-158" edge="1">
          <mxGeometry relative="1" as="geometry" />
        </mxCell>
        <mxCell id="Qtv70iltkPXdNL7PVpSX-161" value="" style="edgeStyle=orthogonalEdgeStyle;rounded=0;orthogonalLoop=1;jettySize=auto;html=1;" parent="Qtv70iltkPXdNL7PVpSX-108" source="GTe_rG1EHSNJOBv9OXUv-53" target="Qtv70iltkPXdNL7PVpSX-160" edge="1">
          <mxGeometry relative="1" as="geometry" />
        </mxCell>
        <mxCell id="Qtv70iltkPXdNL7PVpSX-189" value="" style="edgeStyle=orthogonalEdgeStyle;rounded=0;orthogonalLoop=1;jettySize=auto;html=1;" parent="Qtv70iltkPXdNL7PVpSX-108" source="GTe_rG1EHSNJOBv9OXUv-53" target="Qtv70iltkPXdNL7PVpSX-188" edge="1">
          <mxGeometry relative="1" as="geometry" />
        </mxCell>
        <mxCell id="GTe_rG1EHSNJOBv9OXUv-53" value="&lt;span style=&quot;font-size: 22px;&quot;&gt;&lt;b&gt;Teacher&lt;/b&gt;&lt;/span&gt;" style="whiteSpace=wrap;html=1;align=center;" parent="Qtv70iltkPXdNL7PVpSX-108" vertex="1">
          <mxGeometry x="1000" y="230" width="240" height="70" as="geometry" />
        </mxCell>
        <mxCell id="uTlC51wtbgL0At9paiF0-17" value="" style="shape=link;html=1;rounded=0;entryX=0;entryY=0.5;entryDx=0;entryDy=0;" parent="Qtv70iltkPXdNL7PVpSX-108" source="uTlC51wtbgL0At9paiF0-16" target="GTe_rG1EHSNJOBv9OXUv-53" edge="1">
          <mxGeometry relative="1" as="geometry">
            <mxPoint x="1190" y="1380" as="sourcePoint" />
            <mxPoint x="1350" y="1380" as="targetPoint" />
          </mxGeometry>
        </mxCell>
        <mxCell id="uTlC51wtbgL0At9paiF0-18" value="1" style="resizable=0;html=1;whiteSpace=wrap;align=right;verticalAlign=bottom;" parent="uTlC51wtbgL0At9paiF0-17" connectable="0" vertex="1">
          <mxGeometry x="1" relative="1" as="geometry" />
        </mxCell>
        <mxCell id="Qtv70iltkPXdNL7PVpSX-191" value="" style="edgeStyle=orthogonalEdgeStyle;rounded=0;orthogonalLoop=1;jettySize=auto;html=1;" parent="Qtv70iltkPXdNL7PVpSX-108" source="GTe_rG1EHSNJOBv9OXUv-54" target="Qtv70iltkPXdNL7PVpSX-190" edge="1">
          <mxGeometry relative="1" as="geometry" />
        </mxCell>
        <mxCell id="Qtv70iltkPXdNL7PVpSX-193" value="" style="edgeStyle=orthogonalEdgeStyle;rounded=0;orthogonalLoop=1;jettySize=auto;html=1;" parent="Qtv70iltkPXdNL7PVpSX-108" source="GTe_rG1EHSNJOBv9OXUv-54" target="Qtv70iltkPXdNL7PVpSX-192" edge="1">
          <mxGeometry relative="1" as="geometry" />
        </mxCell>
        <mxCell id="Qtv70iltkPXdNL7PVpSX-196" value="" style="edgeStyle=orthogonalEdgeStyle;rounded=0;orthogonalLoop=1;jettySize=auto;html=1;" parent="Qtv70iltkPXdNL7PVpSX-108" source="GTe_rG1EHSNJOBv9OXUv-54" target="Qtv70iltkPXdNL7PVpSX-195" edge="1">
          <mxGeometry relative="1" as="geometry" />
        </mxCell>
        <mxCell id="Qtv70iltkPXdNL7PVpSX-198" value="" style="edgeStyle=orthogonalEdgeStyle;rounded=0;orthogonalLoop=1;jettySize=auto;html=1;" parent="Qtv70iltkPXdNL7PVpSX-108" source="GTe_rG1EHSNJOBv9OXUv-54" target="Qtv70iltkPXdNL7PVpSX-197" edge="1">
          <mxGeometry relative="1" as="geometry" />
        </mxCell>
        <mxCell id="Qtv70iltkPXdNL7PVpSX-200" value="" style="edgeStyle=orthogonalEdgeStyle;rounded=0;orthogonalLoop=1;jettySize=auto;html=1;" parent="Qtv70iltkPXdNL7PVpSX-108" source="GTe_rG1EHSNJOBv9OXUv-54" target="Qtv70iltkPXdNL7PVpSX-199" edge="1">
          <mxGeometry relative="1" as="geometry" />
        </mxCell>
        <mxCell id="Qtv70iltkPXdNL7PVpSX-204" value="" style="edgeStyle=orthogonalEdgeStyle;rounded=0;orthogonalLoop=1;jettySize=auto;html=1;" parent="Qtv70iltkPXdNL7PVpSX-108" source="GTe_rG1EHSNJOBv9OXUv-54" target="Qtv70iltkPXdNL7PVpSX-203" edge="1">
          <mxGeometry relative="1" as="geometry" />
        </mxCell>
        <mxCell id="Qtv70iltkPXdNL7PVpSX-206" value="" style="edgeStyle=orthogonalEdgeStyle;rounded=0;orthogonalLoop=1;jettySize=auto;html=1;" parent="Qtv70iltkPXdNL7PVpSX-108" source="GTe_rG1EHSNJOBv9OXUv-54" target="Qtv70iltkPXdNL7PVpSX-205" edge="1">
          <mxGeometry relative="1" as="geometry" />
        </mxCell>
        <mxCell id="GTe_rG1EHSNJOBv9OXUv-54" value="&lt;span style=&quot;font-size: 22px;&quot;&gt;&lt;b&gt;Book&lt;/b&gt;&lt;/span&gt;" style="whiteSpace=wrap;html=1;align=center;" parent="Qtv70iltkPXdNL7PVpSX-108" vertex="1">
          <mxGeometry x="1680" y="970" width="240" height="70" as="geometry" />
        </mxCell>
        <mxCell id="uTlC51wtbgL0At9paiF0-11" value="uses" style="shape=rhombus;perimeter=rhombusPerimeter;whiteSpace=wrap;html=1;align=center;" parent="Qtv70iltkPXdNL7PVpSX-108" vertex="1">
          <mxGeometry x="1340" y="990" width="120" height="60" as="geometry" />
        </mxCell>
        <mxCell id="uTlC51wtbgL0At9paiF0-12" value="" style="shape=link;html=1;rounded=0;exitX=0;exitY=0.5;exitDx=0;exitDy=0;entryX=1;entryY=0.5;entryDx=0;entryDy=0;" parent="Qtv70iltkPXdNL7PVpSX-108" source="uTlC51wtbgL0At9paiF0-11" target="GTe_rG1EHSNJOBv9OXUv-57" edge="1">
          <mxGeometry relative="1" as="geometry">
            <mxPoint x="1150" y="1520" as="sourcePoint" />
            <mxPoint x="1310" y="1520" as="targetPoint" />
          </mxGeometry>
        </mxCell>
        <mxCell id="uTlC51wtbgL0At9paiF0-13" value="1" style="resizable=0;html=1;whiteSpace=wrap;align=right;verticalAlign=bottom;" parent="uTlC51wtbgL0At9paiF0-12" connectable="0" vertex="1">
          <mxGeometry x="1" relative="1" as="geometry">
            <mxPoint x="50" y="20" as="offset" />
          </mxGeometry>
        </mxCell>
        <mxCell id="uTlC51wtbgL0At9paiF0-32" value="" style="endArrow=none;html=1;rounded=0;exitX=1;exitY=0.5;exitDx=0;exitDy=0;entryX=0;entryY=0.5;entryDx=0;entryDy=0;" parent="Qtv70iltkPXdNL7PVpSX-108" source="uTlC51wtbgL0At9paiF0-11" target="GTe_rG1EHSNJOBv9OXUv-54" edge="1">
          <mxGeometry relative="1" as="geometry">
            <mxPoint x="1630" y="1050" as="sourcePoint" />
            <mxPoint x="1240" y="1230" as="targetPoint" />
          </mxGeometry>
        </mxCell>
        <mxCell id="uTlC51wtbgL0At9paiF0-33" value="1" style="resizable=0;html=1;whiteSpace=wrap;align=right;verticalAlign=bottom;" parent="uTlC51wtbgL0At9paiF0-32" connectable="0" vertex="1">
          <mxGeometry x="1" relative="1" as="geometry">
            <mxPoint x="-30" y="15" as="offset" />
          </mxGeometry>
        </mxCell>
        <mxCell id="uTlC51wtbgL0At9paiF0-34" value="Scheduled" style="shape=rhombus;perimeter=rhombusPerimeter;whiteSpace=wrap;html=1;align=center;" parent="Qtv70iltkPXdNL7PVpSX-108" vertex="1">
          <mxGeometry x="1410" y="1430" width="120" height="60" as="geometry" />
        </mxCell>
        <mxCell id="uTlC51wtbgL0At9paiF0-35" value="" style="endArrow=none;html=1;rounded=0;exitX=0.75;exitY=1;exitDx=0;exitDy=0;entryX=0.5;entryY=0;entryDx=0;entryDy=0;" parent="Qtv70iltkPXdNL7PVpSX-108" source="GTe_rG1EHSNJOBv9OXUv-57" target="uTlC51wtbgL0At9paiF0-34" edge="1">
          <mxGeometry relative="1" as="geometry">
            <mxPoint x="1180" y="1540" as="sourcePoint" />
            <mxPoint x="1340" y="1540" as="targetPoint" />
          </mxGeometry>
        </mxCell>
        <mxCell id="uTlC51wtbgL0At9paiF0-36" value="N" style="resizable=0;html=1;whiteSpace=wrap;align=right;verticalAlign=bottom;" parent="uTlC51wtbgL0At9paiF0-35" connectable="0" vertex="1">
          <mxGeometry x="1" relative="1" as="geometry">
            <mxPoint x="-10" y="-30" as="offset" />
          </mxGeometry>
        </mxCell>
        <mxCell id="uTlC51wtbgL0At9paiF0-4" value="has" style="shape=rhombus;perimeter=rhombusPerimeter;whiteSpace=wrap;html=1;align=center;" parent="Qtv70iltkPXdNL7PVpSX-108" vertex="1">
          <mxGeometry x="1040" y="1450" width="120" height="60" as="geometry" />
        </mxCell>
        <mxCell id="uTlC51wtbgL0At9paiF0-5" value="" style="shape=link;html=1;rounded=0;exitX=0.5;exitY=0;exitDx=0;exitDy=0;entryX=0.5;entryY=1;entryDx=0;entryDy=0;" parent="Qtv70iltkPXdNL7PVpSX-108" source="uTlC51wtbgL0At9paiF0-4" target="GTe_rG1EHSNJOBv9OXUv-57" edge="1">
          <mxGeometry relative="1" as="geometry">
            <mxPoint x="1150" y="1760" as="sourcePoint" />
            <mxPoint x="1310" y="1760" as="targetPoint" />
          </mxGeometry>
        </mxCell>
        <mxCell id="uTlC51wtbgL0At9paiF0-6" value="1" style="resizable=0;html=1;whiteSpace=wrap;align=right;verticalAlign=bottom;" parent="uTlC51wtbgL0At9paiF0-5" connectable="0" vertex="1">
          <mxGeometry x="1" relative="1" as="geometry">
            <mxPoint x="-10" y="60" as="offset" />
          </mxGeometry>
        </mxCell>
        <mxCell id="VakFBbvGxdhkE8vkGhw--29" value="" style="edgeStyle=orthogonalEdgeStyle;rounded=0;orthogonalLoop=1;jettySize=auto;html=1;" edge="1" parent="Qtv70iltkPXdNL7PVpSX-108" source="GTe_rG1EHSNJOBv9OXUv-60" target="VakFBbvGxdhkE8vkGhw--28">
          <mxGeometry relative="1" as="geometry" />
        </mxCell>
        <mxCell id="VakFBbvGxdhkE8vkGhw--31" value="" style="edgeStyle=orthogonalEdgeStyle;rounded=0;orthogonalLoop=1;jettySize=auto;html=1;" edge="1" parent="Qtv70iltkPXdNL7PVpSX-108" source="GTe_rG1EHSNJOBv9OXUv-60" target="VakFBbvGxdhkE8vkGhw--30">
          <mxGeometry relative="1" as="geometry" />
        </mxCell>
        <mxCell id="VakFBbvGxdhkE8vkGhw--32" value="" style="edgeStyle=orthogonalEdgeStyle;rounded=0;orthogonalLoop=1;jettySize=auto;html=1;" edge="1" parent="Qtv70iltkPXdNL7PVpSX-108" source="GTe_rG1EHSNJOBv9OXUv-60" target="VakFBbvGxdhkE8vkGhw--30">
          <mxGeometry relative="1" as="geometry" />
        </mxCell>
        <mxCell id="VakFBbvGxdhkE8vkGhw--34" value="" style="edgeStyle=orthogonalEdgeStyle;rounded=0;orthogonalLoop=1;jettySize=auto;html=1;" edge="1" parent="Qtv70iltkPXdNL7PVpSX-108" source="GTe_rG1EHSNJOBv9OXUv-60" target="VakFBbvGxdhkE8vkGhw--33">
          <mxGeometry relative="1" as="geometry" />
        </mxCell>
        <mxCell id="VakFBbvGxdhkE8vkGhw--36" value="" style="edgeStyle=orthogonalEdgeStyle;rounded=0;orthogonalLoop=1;jettySize=auto;html=1;" edge="1" parent="Qtv70iltkPXdNL7PVpSX-108" source="GTe_rG1EHSNJOBv9OXUv-60" target="VakFBbvGxdhkE8vkGhw--35">
          <mxGeometry relative="1" as="geometry" />
        </mxCell>
        <mxCell id="VakFBbvGxdhkE8vkGhw--38" value="" style="edgeStyle=orthogonalEdgeStyle;rounded=0;orthogonalLoop=1;jettySize=auto;html=1;" edge="1" parent="Qtv70iltkPXdNL7PVpSX-108" source="GTe_rG1EHSNJOBv9OXUv-60" target="VakFBbvGxdhkE8vkGhw--37">
          <mxGeometry relative="1" as="geometry" />
        </mxCell>
        <mxCell id="VakFBbvGxdhkE8vkGhw--40" value="" style="edgeStyle=orthogonalEdgeStyle;rounded=0;orthogonalLoop=1;jettySize=auto;html=1;" edge="1" parent="Qtv70iltkPXdNL7PVpSX-108" source="GTe_rG1EHSNJOBv9OXUv-60" target="VakFBbvGxdhkE8vkGhw--39">
          <mxGeometry relative="1" as="geometry" />
        </mxCell>
        <mxCell id="VakFBbvGxdhkE8vkGhw--42" value="" style="edgeStyle=orthogonalEdgeStyle;rounded=0;orthogonalLoop=1;jettySize=auto;html=1;" edge="1" parent="Qtv70iltkPXdNL7PVpSX-108" source="GTe_rG1EHSNJOBv9OXUv-60" target="VakFBbvGxdhkE8vkGhw--41">
          <mxGeometry relative="1" as="geometry" />
        </mxCell>
        <mxCell id="GTe_rG1EHSNJOBv9OXUv-60" value="&lt;span style=&quot;font-size: 22px;&quot;&gt;&lt;b&gt;Timeslot&lt;/b&gt;&lt;/span&gt;" style="whiteSpace=wrap;html=1;align=center;" parent="Qtv70iltkPXdNL7PVpSX-108" vertex="1">
          <mxGeometry x="1680" y="1530" width="240" height="70" as="geometry" />
        </mxCell>
        <mxCell id="uTlC51wtbgL0At9paiF0-37" value="" style="endArrow=none;html=1;rounded=0;exitX=1;exitY=0.5;exitDx=0;exitDy=0;entryX=0;entryY=0.5;entryDx=0;entryDy=0;" parent="Qtv70iltkPXdNL7PVpSX-108" source="uTlC51wtbgL0At9paiF0-34" target="GTe_rG1EHSNJOBv9OXUv-60" edge="1">
          <mxGeometry relative="1" as="geometry">
            <mxPoint x="1180" y="1540" as="sourcePoint" />
            <mxPoint x="1340" y="1540" as="targetPoint" />
          </mxGeometry>
        </mxCell>
        <mxCell id="uTlC51wtbgL0At9paiF0-38" value="M" style="resizable=0;html=1;whiteSpace=wrap;align=right;verticalAlign=bottom;" parent="uTlC51wtbgL0At9paiF0-37" connectable="0" vertex="1">
          <mxGeometry x="1" relative="1" as="geometry">
            <mxPoint x="-50" y="-20" as="offset" />
          </mxGeometry>
        </mxCell>
        <mxCell id="VakFBbvGxdhkE8vkGhw--44" value="" style="edgeStyle=orthogonalEdgeStyle;rounded=0;orthogonalLoop=1;jettySize=auto;html=1;" edge="1" parent="Qtv70iltkPXdNL7PVpSX-108" source="uTlC51wtbgL0At9paiF0-1" target="VakFBbvGxdhkE8vkGhw--43">
          <mxGeometry relative="1" as="geometry" />
        </mxCell>
        <mxCell id="VakFBbvGxdhkE8vkGhw--46" value="" style="edgeStyle=orthogonalEdgeStyle;rounded=0;orthogonalLoop=1;jettySize=auto;html=1;" edge="1" parent="Qtv70iltkPXdNL7PVpSX-108" source="uTlC51wtbgL0At9paiF0-1" target="VakFBbvGxdhkE8vkGhw--45">
          <mxGeometry relative="1" as="geometry" />
        </mxCell>
        <mxCell id="VakFBbvGxdhkE8vkGhw--48" value="" style="edgeStyle=orthogonalEdgeStyle;rounded=0;orthogonalLoop=1;jettySize=auto;html=1;" edge="1" parent="Qtv70iltkPXdNL7PVpSX-108" source="uTlC51wtbgL0At9paiF0-1" target="VakFBbvGxdhkE8vkGhw--47">
          <mxGeometry relative="1" as="geometry" />
        </mxCell>
        <mxCell id="VakFBbvGxdhkE8vkGhw--50" value="" style="edgeStyle=orthogonalEdgeStyle;rounded=0;orthogonalLoop=1;jettySize=auto;html=1;" edge="1" parent="Qtv70iltkPXdNL7PVpSX-108" source="uTlC51wtbgL0At9paiF0-1" target="VakFBbvGxdhkE8vkGhw--49">
          <mxGeometry relative="1" as="geometry" />
        </mxCell>
        <mxCell id="VakFBbvGxdhkE8vkGhw--52" value="" style="edgeStyle=orthogonalEdgeStyle;rounded=0;orthogonalLoop=1;jettySize=auto;html=1;" edge="1" parent="Qtv70iltkPXdNL7PVpSX-108" source="uTlC51wtbgL0At9paiF0-1" target="VakFBbvGxdhkE8vkGhw--51">
          <mxGeometry relative="1" as="geometry" />
        </mxCell>
        <mxCell id="VakFBbvGxdhkE8vkGhw--54" value="" style="edgeStyle=orthogonalEdgeStyle;rounded=0;orthogonalLoop=1;jettySize=auto;html=1;" edge="1" parent="Qtv70iltkPXdNL7PVpSX-108" source="uTlC51wtbgL0At9paiF0-1" target="VakFBbvGxdhkE8vkGhw--53">
          <mxGeometry relative="1" as="geometry" />
        </mxCell>
        <mxCell id="VakFBbvGxdhkE8vkGhw--56" value="" style="edgeStyle=orthogonalEdgeStyle;rounded=0;orthogonalLoop=1;jettySize=auto;html=1;" edge="1" parent="Qtv70iltkPXdNL7PVpSX-108" source="uTlC51wtbgL0At9paiF0-1" target="VakFBbvGxdhkE8vkGhw--55">
          <mxGeometry relative="1" as="geometry" />
        </mxCell>
        <mxCell id="uTlC51wtbgL0At9paiF0-1" value="&lt;span style=&quot;font-size: 22px;&quot;&gt;&lt;b&gt;Session&lt;/b&gt;&lt;/span&gt;" style="whiteSpace=wrap;html=1;align=center;" parent="Qtv70iltkPXdNL7PVpSX-108" vertex="1">
          <mxGeometry x="875" y="1865" width="240" height="70" as="geometry" />
        </mxCell>
        <mxCell id="uTlC51wtbgL0At9paiF0-9" value="" style="endArrow=none;html=1;rounded=0;exitX=0.5;exitY=1;exitDx=0;exitDy=0;entryX=0.5;entryY=0;entryDx=0;entryDy=0;" parent="Qtv70iltkPXdNL7PVpSX-108" source="uTlC51wtbgL0At9paiF0-4" target="uTlC51wtbgL0At9paiF0-1" edge="1">
          <mxGeometry relative="1" as="geometry">
            <mxPoint x="1150" y="1760" as="sourcePoint" />
            <mxPoint x="1310" y="1760" as="targetPoint" />
          </mxGeometry>
        </mxCell>
        <mxCell id="uTlC51wtbgL0At9paiF0-10" value="N" style="resizable=0;html=1;whiteSpace=wrap;align=right;verticalAlign=bottom;" parent="uTlC51wtbgL0At9paiF0-9" connectable="0" vertex="1">
          <mxGeometry x="1" relative="1" as="geometry">
            <mxPoint x="-40" y="-30" as="offset" />
          </mxGeometry>
        </mxCell>
        <mxCell id="uTlC51wtbgL0At9paiF0-27" value="has" style="shape=rhombus;perimeter=rhombusPerimeter;whiteSpace=wrap;html=1;align=center;" parent="Qtv70iltkPXdNL7PVpSX-108" vertex="1">
          <mxGeometry x="645" y="1795" width="120" height="60" as="geometry" />
        </mxCell>
        <mxCell id="uTlC51wtbgL0At9paiF0-28" value="" style="shape=link;html=1;rounded=0;exitX=1;exitY=0.5;exitDx=0;exitDy=0;entryX=0;entryY=0.75;entryDx=0;entryDy=0;" parent="Qtv70iltkPXdNL7PVpSX-108" source="uTlC51wtbgL0At9paiF0-27" target="uTlC51wtbgL0At9paiF0-1" edge="1">
          <mxGeometry relative="1" as="geometry">
            <mxPoint x="655" y="1625" as="sourcePoint" />
            <mxPoint x="815" y="1625" as="targetPoint" />
          </mxGeometry>
        </mxCell>
        <mxCell id="uTlC51wtbgL0At9paiF0-29" value="1" style="resizable=0;html=1;whiteSpace=wrap;align=right;verticalAlign=bottom;" parent="uTlC51wtbgL0At9paiF0-28" connectable="0" vertex="1">
          <mxGeometry x="1" relative="1" as="geometry">
            <mxPoint x="-30" y="7" as="offset" />
          </mxGeometry>
        </mxCell>
        <mxCell id="VakFBbvGxdhkE8vkGhw--58" value="" style="edgeStyle=orthogonalEdgeStyle;rounded=0;orthogonalLoop=1;jettySize=auto;html=1;" edge="1" parent="Qtv70iltkPXdNL7PVpSX-108" source="uTlC51wtbgL0At9paiF0-2" target="VakFBbvGxdhkE8vkGhw--57">
          <mxGeometry relative="1" as="geometry" />
        </mxCell>
        <mxCell id="VakFBbvGxdhkE8vkGhw--60" value="" style="edgeStyle=orthogonalEdgeStyle;rounded=0;orthogonalLoop=1;jettySize=auto;html=1;" edge="1" parent="Qtv70iltkPXdNL7PVpSX-108" source="uTlC51wtbgL0At9paiF0-2" target="VakFBbvGxdhkE8vkGhw--59">
          <mxGeometry relative="1" as="geometry" />
        </mxCell>
        <mxCell id="VakFBbvGxdhkE8vkGhw--62" value="" style="edgeStyle=orthogonalEdgeStyle;rounded=0;orthogonalLoop=1;jettySize=auto;html=1;" edge="1" parent="Qtv70iltkPXdNL7PVpSX-108" source="uTlC51wtbgL0At9paiF0-2" target="VakFBbvGxdhkE8vkGhw--61">
          <mxGeometry relative="1" as="geometry" />
        </mxCell>
        <mxCell id="VakFBbvGxdhkE8vkGhw--64" value="" style="edgeStyle=orthogonalEdgeStyle;rounded=0;orthogonalLoop=1;jettySize=auto;html=1;" edge="1" parent="Qtv70iltkPXdNL7PVpSX-108" source="uTlC51wtbgL0At9paiF0-2" target="VakFBbvGxdhkE8vkGhw--63">
          <mxGeometry relative="1" as="geometry" />
        </mxCell>
        <mxCell id="VakFBbvGxdhkE8vkGhw--66" value="" style="edgeStyle=orthogonalEdgeStyle;rounded=0;orthogonalLoop=1;jettySize=auto;html=1;" edge="1" parent="Qtv70iltkPXdNL7PVpSX-108" source="uTlC51wtbgL0At9paiF0-2" target="VakFBbvGxdhkE8vkGhw--65">
          <mxGeometry relative="1" as="geometry" />
        </mxCell>
        <mxCell id="VakFBbvGxdhkE8vkGhw--68" value="" style="edgeStyle=orthogonalEdgeStyle;rounded=0;orthogonalLoop=1;jettySize=auto;html=1;" edge="1" parent="Qtv70iltkPXdNL7PVpSX-108" source="uTlC51wtbgL0At9paiF0-2" target="VakFBbvGxdhkE8vkGhw--67">
          <mxGeometry relative="1" as="geometry" />
        </mxCell>
        <mxCell id="uTlC51wtbgL0At9paiF0-2" value="&lt;span style=&quot;font-size: 22px;&quot;&gt;&lt;b&gt;Attendance&lt;/b&gt;&lt;/span&gt;" style="whiteSpace=wrap;html=1;align=center;" parent="Qtv70iltkPXdNL7PVpSX-108" vertex="1">
          <mxGeometry x="405" y="1650" width="240" height="70" as="geometry" />
        </mxCell>
        <mxCell id="uTlC51wtbgL0At9paiF0-30" value="" style="endArrow=none;html=1;rounded=0;exitX=0;exitY=0.5;exitDx=0;exitDy=0;entryX=1;entryY=0.5;entryDx=0;entryDy=0;" parent="Qtv70iltkPXdNL7PVpSX-108" source="uTlC51wtbgL0At9paiF0-27" target="uTlC51wtbgL0At9paiF0-2" edge="1">
          <mxGeometry relative="1" as="geometry">
            <mxPoint x="810" y="1550" as="sourcePoint" />
            <mxPoint x="970" y="1550" as="targetPoint" />
          </mxGeometry>
        </mxCell>
        <mxCell id="uTlC51wtbgL0At9paiF0-31" value="N" style="resizable=0;html=1;whiteSpace=wrap;align=right;verticalAlign=bottom;" parent="uTlC51wtbgL0At9paiF0-30" connectable="0" vertex="1">
          <mxGeometry x="1" relative="1" as="geometry">
            <mxPoint x="50" y="5" as="offset" />
          </mxGeometry>
        </mxCell>
        <mxCell id="uTlC51wtbgL0At9paiF0-22" value="has" style="shape=rhombus;perimeter=rhombusPerimeter;whiteSpace=wrap;html=1;align=center;" parent="Qtv70iltkPXdNL7PVpSX-108" vertex="1">
          <mxGeometry x="440" y="1320" width="120" height="60" as="geometry" />
        </mxCell>
        <mxCell id="uTlC51wtbgL0At9paiF0-23" value="" style="shape=link;html=1;rounded=0;exitX=0.5;exitY=0;exitDx=0;exitDy=0;entryX=0.5;entryY=1;entryDx=0;entryDy=0;" parent="Qtv70iltkPXdNL7PVpSX-108" source="uTlC51wtbgL0At9paiF0-22" target="GTe_rG1EHSNJOBv9OXUv-52" edge="1">
          <mxGeometry relative="1" as="geometry">
            <mxPoint x="820" y="1300" as="sourcePoint" />
            <mxPoint x="980" y="1300" as="targetPoint" />
          </mxGeometry>
        </mxCell>
        <mxCell id="uTlC51wtbgL0At9paiF0-24" value="1" style="resizable=0;html=1;whiteSpace=wrap;align=right;verticalAlign=bottom;" parent="uTlC51wtbgL0At9paiF0-23" connectable="0" vertex="1">
          <mxGeometry x="1" relative="1" as="geometry">
            <mxPoint x="-20" y="80" as="offset" />
          </mxGeometry>
        </mxCell>
        <mxCell id="uTlC51wtbgL0At9paiF0-25" value="" style="endArrow=none;html=1;rounded=0;exitX=0.5;exitY=1;exitDx=0;exitDy=0;entryX=0.5;entryY=0;entryDx=0;entryDy=0;" parent="Qtv70iltkPXdNL7PVpSX-108" source="uTlC51wtbgL0At9paiF0-22" target="uTlC51wtbgL0At9paiF0-2" edge="1">
          <mxGeometry relative="1" as="geometry">
            <mxPoint x="720" y="1390" as="sourcePoint" />
            <mxPoint x="940" y="1390" as="targetPoint" />
          </mxGeometry>
        </mxCell>
        <mxCell id="uTlC51wtbgL0At9paiF0-26" value="N" style="resizable=0;html=1;whiteSpace=wrap;align=right;verticalAlign=bottom;" parent="uTlC51wtbgL0At9paiF0-25" connectable="0" vertex="1">
          <mxGeometry x="1" relative="1" as="geometry">
            <mxPoint x="-50" y="-121" as="offset" />
          </mxGeometry>
        </mxCell>
        <mxCell id="uTlC51wtbgL0At9paiF0-89" value="&lt;font style=&quot;font-size: 26px;&quot;&gt;&lt;b&gt;Management System&lt;/b&gt;&lt;/font&gt;" style="text;html=1;align=center;verticalAlign=middle;resizable=0;points=[];autosize=1;strokeColor=none;fillColor=none;" parent="Qtv70iltkPXdNL7PVpSX-108" vertex="1">
          <mxGeometry x="210" y="30" width="280" height="40" as="geometry" />
        </mxCell>
        <mxCell id="Qtv70iltkPXdNL7PVpSX-112" value="id" style="ellipse;whiteSpace=wrap;html=1;" parent="Qtv70iltkPXdNL7PVpSX-108" vertex="1">
          <mxGeometry x="280" y="110" width="80" height="80" as="geometry" />
        </mxCell>
        <mxCell id="Qtv70iltkPXdNL7PVpSX-114" value="user_id" style="ellipse;whiteSpace=wrap;html=1;" parent="Qtv70iltkPXdNL7PVpSX-108" vertex="1">
          <mxGeometry x="180" y="110" width="80" height="80" as="geometry" />
        </mxCell>
        <mxCell id="Qtv70iltkPXdNL7PVpSX-116" value="first_name" style="ellipse;whiteSpace=wrap;html=1;" parent="Qtv70iltkPXdNL7PVpSX-108" vertex="1">
          <mxGeometry x="110" y="200" width="80" height="80" as="geometry" />
        </mxCell>
        <mxCell id="Qtv70iltkPXdNL7PVpSX-119" value="last_name" style="ellipse;whiteSpace=wrap;html=1;" parent="Qtv70iltkPXdNL7PVpSX-108" vertex="1">
          <mxGeometry x="100" y="300" width="80" height="80" as="geometry" />
        </mxCell>
        <mxCell id="Qtv70iltkPXdNL7PVpSX-121" value="father_name" style="ellipse;whiteSpace=wrap;html=1;" parent="Qtv70iltkPXdNL7PVpSX-108" vertex="1">
          <mxGeometry x="470" y="150" width="80" height="80" as="geometry" />
        </mxCell>
        <mxCell id="Qtv70iltkPXdNL7PVpSX-123" value="year_of_birth" style="ellipse;whiteSpace=wrap;html=1;" parent="Qtv70iltkPXdNL7PVpSX-108" vertex="1">
          <mxGeometry x="580" y="200" width="80" height="80" as="geometry" />
        </mxCell>
        <mxCell id="Qtv70iltkPXdNL7PVpSX-126" value="phone_number" style="ellipse;whiteSpace=wrap;html=1;" parent="Qtv70iltkPXdNL7PVpSX-108" vertex="1">
          <mxGeometry x="572.5" y="290" width="95" height="80" as="geometry" />
        </mxCell>
        <mxCell id="Qtv70iltkPXdNL7PVpSX-128" value="education_level" style="ellipse;whiteSpace=wrap;html=1;" parent="Qtv70iltkPXdNL7PVpSX-108" vertex="1">
          <mxGeometry x="170" y="360" width="100" height="80" as="geometry" />
        </mxCell>
        <mxCell id="Qtv70iltkPXdNL7PVpSX-130" value="personnel_photo" style="ellipse;whiteSpace=wrap;html=1;" parent="Qtv70iltkPXdNL7PVpSX-108" vertex="1">
          <mxGeometry x="240" y="430" width="100" height="80" as="geometry" />
        </mxCell>
        <mxCell id="Qtv70iltkPXdNL7PVpSX-133" value="created_at" style="ellipse;whiteSpace=wrap;html=1;" parent="Qtv70iltkPXdNL7PVpSX-108" vertex="1">
          <mxGeometry x="485" y="360" width="80" height="80" as="geometry" />
        </mxCell>
        <mxCell id="Qtv70iltkPXdNL7PVpSX-135" value="updated_at" style="ellipse;whiteSpace=wrap;html=1;" parent="Qtv70iltkPXdNL7PVpSX-108" vertex="1">
          <mxGeometry x="100" y="430" width="80" height="80" as="geometry" />
        </mxCell>
        <mxCell id="Qtv70iltkPXdNL7PVpSX-137" value="id" style="ellipse;whiteSpace=wrap;html=1;" parent="Qtv70iltkPXdNL7PVpSX-108" vertex="1">
          <mxGeometry x="930" y="100" width="80" height="80" as="geometry" />
        </mxCell>
        <mxCell id="Qtv70iltkPXdNL7PVpSX-139" value="user_id" style="ellipse;whiteSpace=wrap;html=1;" parent="Qtv70iltkPXdNL7PVpSX-108" vertex="1">
          <mxGeometry x="1030" y="90" width="80" height="80" as="geometry" />
        </mxCell>
        <mxCell id="Qtv70iltkPXdNL7PVpSX-141" value="first_name" style="ellipse;whiteSpace=wrap;html=1;" parent="Qtv70iltkPXdNL7PVpSX-108" vertex="1">
          <mxGeometry x="1150" y="90" width="80" height="80" as="geometry" />
        </mxCell>
        <mxCell id="Qtv70iltkPXdNL7PVpSX-143" value="last_name" style="ellipse;whiteSpace=wrap;html=1;" parent="Qtv70iltkPXdNL7PVpSX-108" vertex="1">
          <mxGeometry x="1240" y="110" width="80" height="80" as="geometry" />
        </mxCell>
        <mxCell id="Qtv70iltkPXdNL7PVpSX-145" value="father_name" style="ellipse;whiteSpace=wrap;html=1;" parent="Qtv70iltkPXdNL7PVpSX-108" vertex="1">
          <mxGeometry x="1280" y="220" width="80" height="80" as="geometry" />
        </mxCell>
        <mxCell id="Qtv70iltkPXdNL7PVpSX-147" value="year_of_birth" style="ellipse;whiteSpace=wrap;html=1;" parent="Qtv70iltkPXdNL7PVpSX-108" vertex="1">
          <mxGeometry x="850" y="220" width="80" height="80" as="geometry" />
        </mxCell>
        <mxCell id="Qtv70iltkPXdNL7PVpSX-149" value="phone_number" style="ellipse;whiteSpace=wrap;html=1;" parent="Qtv70iltkPXdNL7PVpSX-108" vertex="1">
          <mxGeometry x="900" y="340" width="110" height="80" as="geometry" />
        </mxCell>
        <mxCell id="Qtv70iltkPXdNL7PVpSX-151" value="education_level" style="ellipse;whiteSpace=wrap;html=1;" parent="Qtv70iltkPXdNL7PVpSX-108" vertex="1">
          <mxGeometry x="1290" y="310" width="110" height="80" as="geometry" />
        </mxCell>
        <mxCell id="Qtv70iltkPXdNL7PVpSX-155" value="educational_license" style="ellipse;whiteSpace=wrap;html=1;" parent="Qtv70iltkPXdNL7PVpSX-108" vertex="1">
          <mxGeometry x="1230" y="410" width="130" height="80" as="geometry" />
        </mxCell>
        <mxCell id="Qtv70iltkPXdNL7PVpSX-158" value="national_id" style="ellipse;whiteSpace=wrap;html=1;" parent="Qtv70iltkPXdNL7PVpSX-108" vertex="1">
          <mxGeometry x="840" y="100" width="80" height="80" as="geometry" />
        </mxCell>
        <mxCell id="Qtv70iltkPXdNL7PVpSX-160" value="identification" style="ellipse;whiteSpace=wrap;html=1;" parent="Qtv70iltkPXdNL7PVpSX-108" vertex="1">
          <mxGeometry x="1120" y="370" width="80" height="80" as="geometry" />
        </mxCell>
        <mxCell id="Qtv70iltkPXdNL7PVpSX-162" value="personal_photo" style="ellipse;whiteSpace=wrap;html=1;" parent="Qtv70iltkPXdNL7PVpSX-108" vertex="1">
          <mxGeometry x="365" y="85" width="80" height="80" as="geometry" />
        </mxCell>
        <mxCell id="Qtv70iltkPXdNL7PVpSX-164" value="updated_id" style="ellipse;whiteSpace=wrap;html=1;" parent="Qtv70iltkPXdNL7PVpSX-108" vertex="1">
          <mxGeometry x="330" y="490" width="80" height="80" as="geometry" />
        </mxCell>
        <mxCell id="Qtv70iltkPXdNL7PVpSX-166" value="id" style="ellipse;whiteSpace=wrap;html=1;" parent="Qtv70iltkPXdNL7PVpSX-108" vertex="1">
          <mxGeometry x="1610" y="120" width="80" height="80" as="geometry" />
        </mxCell>
        <mxCell id="Qtv70iltkPXdNL7PVpSX-167" value="user_id" style="ellipse;whiteSpace=wrap;html=1;" parent="Qtv70iltkPXdNL7PVpSX-108" vertex="1">
          <mxGeometry x="1710" y="110" width="80" height="80" as="geometry" />
        </mxCell>
        <mxCell id="Qtv70iltkPXdNL7PVpSX-168" value="first_name" style="ellipse;whiteSpace=wrap;html=1;" parent="Qtv70iltkPXdNL7PVpSX-108" vertex="1">
          <mxGeometry x="1830" y="110" width="80" height="80" as="geometry" />
        </mxCell>
        <mxCell id="Qtv70iltkPXdNL7PVpSX-169" value="last_name" style="ellipse;whiteSpace=wrap;html=1;" parent="Qtv70iltkPXdNL7PVpSX-108" vertex="1">
          <mxGeometry x="1920" y="130" width="80" height="80" as="geometry" />
        </mxCell>
        <mxCell id="Qtv70iltkPXdNL7PVpSX-170" value="father_name" style="ellipse;whiteSpace=wrap;html=1;" parent="Qtv70iltkPXdNL7PVpSX-108" vertex="1">
          <mxGeometry x="1960" y="240" width="80" height="80" as="geometry" />
        </mxCell>
        <mxCell id="Qtv70iltkPXdNL7PVpSX-171" value="phone_number" style="ellipse;whiteSpace=wrap;html=1;" parent="Qtv70iltkPXdNL7PVpSX-108" vertex="1">
          <mxGeometry x="1560" y="320" width="110" height="80" as="geometry" />
        </mxCell>
        <mxCell id="Qtv70iltkPXdNL7PVpSX-172" value="education_level" style="ellipse;whiteSpace=wrap;html=1;" parent="Qtv70iltkPXdNL7PVpSX-108" vertex="1">
          <mxGeometry x="1970" y="330" width="110" height="80" as="geometry" />
        </mxCell>
        <mxCell id="Qtv70iltkPXdNL7PVpSX-173" value="educational_license" style="ellipse;whiteSpace=wrap;html=1;" parent="Qtv70iltkPXdNL7PVpSX-108" vertex="1">
          <mxGeometry x="1910" y="430" width="130" height="80" as="geometry" />
        </mxCell>
        <mxCell id="Qtv70iltkPXdNL7PVpSX-174" value="national_id" style="ellipse;whiteSpace=wrap;html=1;" parent="Qtv70iltkPXdNL7PVpSX-108" vertex="1">
          <mxGeometry x="1520" y="120" width="80" height="80" as="geometry" />
        </mxCell>
        <mxCell id="Qtv70iltkPXdNL7PVpSX-183" value="role" style="ellipse;whiteSpace=wrap;html=1;" parent="Qtv70iltkPXdNL7PVpSX-108" vertex="1">
          <mxGeometry x="1860" y="340" width="80" height="80" as="geometry" />
        </mxCell>
        <mxCell id="Qtv70iltkPXdNL7PVpSX-188" value="national_card" style="ellipse;whiteSpace=wrap;html=1;" parent="Qtv70iltkPXdNL7PVpSX-108" vertex="1">
          <mxGeometry x="1030" y="410" width="80" height="80" as="geometry" />
        </mxCell>
        <mxCell id="Qtv70iltkPXdNL7PVpSX-190" value="id" style="ellipse;whiteSpace=wrap;html=1;" parent="Qtv70iltkPXdNL7PVpSX-108" vertex="1">
          <mxGeometry x="1630" y="840" width="80" height="80" as="geometry" />
        </mxCell>
        <mxCell id="Qtv70iltkPXdNL7PVpSX-192" value="name" style="ellipse;whiteSpace=wrap;html=1;" parent="Qtv70iltkPXdNL7PVpSX-108" vertex="1">
          <mxGeometry x="1720" y="830" width="80" height="80" as="geometry" />
        </mxCell>
        <mxCell id="Qtv70iltkPXdNL7PVpSX-195" value="price" style="ellipse;whiteSpace=wrap;html=1;" parent="Qtv70iltkPXdNL7PVpSX-108" vertex="1">
          <mxGeometry x="1820" y="830" width="80" height="80" as="geometry" />
        </mxCell>
        <mxCell id="Qtv70iltkPXdNL7PVpSX-197" value="cover" style="ellipse;whiteSpace=wrap;html=1;" parent="Qtv70iltkPXdNL7PVpSX-108" vertex="1">
          <mxGeometry x="1920" y="870" width="80" height="80" as="geometry" />
        </mxCell>
        <mxCell id="Qtv70iltkPXdNL7PVpSX-199" value="files" style="ellipse;whiteSpace=wrap;html=1;" parent="Qtv70iltkPXdNL7PVpSX-108" vertex="1">
          <mxGeometry x="1720" y="1050" width="80" height="80" as="geometry" />
        </mxCell>
        <mxCell id="Qtv70iltkPXdNL7PVpSX-203" value="created_at" style="ellipse;whiteSpace=wrap;html=1;" parent="Qtv70iltkPXdNL7PVpSX-108" vertex="1">
          <mxGeometry x="1840" y="1050" width="80" height="80" as="geometry" />
        </mxCell>
        <mxCell id="Qtv70iltkPXdNL7PVpSX-205" value="updated_at" style="ellipse;whiteSpace=wrap;html=1;" parent="Qtv70iltkPXdNL7PVpSX-108" vertex="1">
          <mxGeometry x="1950" y="980" width="80" height="80" as="geometry" />
        </mxCell>
        <mxCell id="VakFBbvGxdhkE8vkGhw--1" value="id" style="ellipse;whiteSpace=wrap;html=1;" vertex="1" parent="Qtv70iltkPXdNL7PVpSX-108">
          <mxGeometry x="850" y="1120" width="80" height="80" as="geometry" />
        </mxCell>
        <mxCell id="VakFBbvGxdhkE8vkGhw--3" value="teacher_id" style="ellipse;whiteSpace=wrap;html=1;" vertex="1" parent="Qtv70iltkPXdNL7PVpSX-108">
          <mxGeometry x="760" y="1120" width="80" height="80" as="geometry" />
        </mxCell>
        <mxCell id="VakFBbvGxdhkE8vkGhw--7" value="book_id" style="ellipse;whiteSpace=wrap;html=1;" vertex="1" parent="Qtv70iltkPXdNL7PVpSX-108">
          <mxGeometry x="780" y="1290" width="80" height="80" as="geometry" />
        </mxCell>
        <mxCell id="VakFBbvGxdhkE8vkGhw--9" value="base_fee" style="ellipse;whiteSpace=wrap;html=1;" vertex="1" parent="Qtv70iltkPXdNL7PVpSX-108">
          <mxGeometry x="800" y="1400" width="80" height="80" as="geometry" />
        </mxCell>
        <mxCell id="VakFBbvGxdhkE8vkGhw--11" value="teacher_fee" style="ellipse;whiteSpace=wrap;html=1;" vertex="1" parent="Qtv70iltkPXdNL7PVpSX-108">
          <mxGeometry x="880" y="1400" width="80" height="80" as="geometry" />
        </mxCell>
        <mxCell id="VakFBbvGxdhkE8vkGhw--13" value="held_sessions" style="ellipse;whiteSpace=wrap;html=1;" vertex="1" parent="Qtv70iltkPXdNL7PVpSX-108">
          <mxGeometry x="1070" y="1110" width="80" height="80" as="geometry" />
        </mxCell>
        <mxCell id="VakFBbvGxdhkE8vkGhw--16" value="min_sessions" style="ellipse;whiteSpace=wrap;html=1;" vertex="1" parent="Qtv70iltkPXdNL7PVpSX-108">
          <mxGeometry x="1150" y="1130" width="80" height="80" as="geometry" />
        </mxCell>
        <mxCell id="VakFBbvGxdhkE8vkGhw--18" value="started_at" style="ellipse;whiteSpace=wrap;html=1;" vertex="1" parent="Qtv70iltkPXdNL7PVpSX-108">
          <mxGeometry x="1255" y="1210" width="80" height="80" as="geometry" />
        </mxCell>
        <mxCell id="VakFBbvGxdhkE8vkGhw--22" value="ended_at" style="ellipse;whiteSpace=wrap;html=1;" vertex="1" parent="Qtv70iltkPXdNL7PVpSX-108">
          <mxGeometry x="1280" y="1290" width="80" height="80" as="geometry" />
        </mxCell>
        <mxCell id="VakFBbvGxdhkE8vkGhw--24" value="created_at" style="ellipse;whiteSpace=wrap;html=1;" vertex="1" parent="Qtv70iltkPXdNL7PVpSX-108">
          <mxGeometry x="1175" y="1370" width="80" height="80" as="geometry" />
        </mxCell>
        <mxCell id="VakFBbvGxdhkE8vkGhw--26" value="updated_at" style="ellipse;whiteSpace=wrap;html=1;" vertex="1" parent="Qtv70iltkPXdNL7PVpSX-108">
          <mxGeometry x="1000" y="1380" width="80" height="80" as="geometry" />
        </mxCell>
        <mxCell id="VakFBbvGxdhkE8vkGhw--28" value="id" style="ellipse;whiteSpace=wrap;html=1;" vertex="1" parent="Qtv70iltkPXdNL7PVpSX-108">
          <mxGeometry x="1620" y="1390" width="80" height="80" as="geometry" />
        </mxCell>
        <mxCell id="VakFBbvGxdhkE8vkGhw--30" value="day" style="ellipse;whiteSpace=wrap;html=1;" vertex="1" parent="Qtv70iltkPXdNL7PVpSX-108">
          <mxGeometry x="1720" y="1380" width="80" height="80" as="geometry" />
        </mxCell>
        <mxCell id="VakFBbvGxdhkE8vkGhw--33" value="capacity" style="ellipse;whiteSpace=wrap;html=1;" vertex="1" parent="Qtv70iltkPXdNL7PVpSX-108">
          <mxGeometry x="1820" y="1380" width="80" height="80" as="geometry" />
        </mxCell>
        <mxCell id="VakFBbvGxdhkE8vkGhw--35" value="start_time" style="ellipse;whiteSpace=wrap;html=1;" vertex="1" parent="Qtv70iltkPXdNL7PVpSX-108">
          <mxGeometry x="1920" y="1400" width="80" height="80" as="geometry" />
        </mxCell>
        <mxCell id="VakFBbvGxdhkE8vkGhw--37" value="end_time" style="ellipse;whiteSpace=wrap;html=1;" vertex="1" parent="Qtv70iltkPXdNL7PVpSX-108">
          <mxGeometry x="1540" y="1590" width="80" height="80" as="geometry" />
        </mxCell>
        <mxCell id="VakFBbvGxdhkE8vkGhw--39" value="created_at" style="ellipse;whiteSpace=wrap;html=1;" vertex="1" parent="Qtv70iltkPXdNL7PVpSX-108">
          <mxGeometry x="1650" y="1640" width="80" height="80" as="geometry" />
        </mxCell>
        <mxCell id="VakFBbvGxdhkE8vkGhw--41" value="updated_at" style="ellipse;whiteSpace=wrap;html=1;" vertex="1" parent="Qtv70iltkPXdNL7PVpSX-108">
          <mxGeometry x="1760" y="1670" width="80" height="80" as="geometry" />
        </mxCell>
        <mxCell id="VakFBbvGxdhkE8vkGhw--43" value="id" style="ellipse;whiteSpace=wrap;html=1;" vertex="1" parent="Qtv70iltkPXdNL7PVpSX-108">
          <mxGeometry x="865" y="1745" width="80" height="80" as="geometry" />
        </mxCell>
        <mxCell id="VakFBbvGxdhkE8vkGhw--45" value="class_id" style="ellipse;whiteSpace=wrap;html=1;" vertex="1" parent="Qtv70iltkPXdNL7PVpSX-108">
          <mxGeometry x="985" y="1720" width="80" height="80" as="geometry" />
        </mxCell>
        <mxCell id="VakFBbvGxdhkE8vkGhw--47" value="description" style="ellipse;whiteSpace=wrap;html=1;" vertex="1" parent="Qtv70iltkPXdNL7PVpSX-108">
          <mxGeometry x="775" y="1935" width="80" height="80" as="geometry" />
        </mxCell>
        <mxCell id="VakFBbvGxdhkE8vkGhw--49" value="date_held" style="ellipse;whiteSpace=wrap;html=1;" vertex="1" parent="Qtv70iltkPXdNL7PVpSX-108">
          <mxGeometry x="875" y="1965" width="80" height="80" as="geometry" />
        </mxCell>
        <mxCell id="VakFBbvGxdhkE8vkGhw--51" value="canceled" style="ellipse;whiteSpace=wrap;html=1;" vertex="1" parent="Qtv70iltkPXdNL7PVpSX-108">
          <mxGeometry x="1095" y="1745" width="80" height="80" as="geometry" />
        </mxCell>
        <mxCell id="VakFBbvGxdhkE8vkGhw--53" value="created_at" style="ellipse;whiteSpace=wrap;html=1;" vertex="1" parent="Qtv70iltkPXdNL7PVpSX-108">
          <mxGeometry x="1150" y="1835" width="80" height="80" as="geometry" />
        </mxCell>
        <mxCell id="VakFBbvGxdhkE8vkGhw--55" value="updated_at" style="ellipse;whiteSpace=wrap;html=1;" vertex="1" parent="Qtv70iltkPXdNL7PVpSX-108">
          <mxGeometry x="1125" y="1935" width="80" height="80" as="geometry" />
        </mxCell>
        <mxCell id="VakFBbvGxdhkE8vkGhw--57" value="id" style="ellipse;whiteSpace=wrap;html=1;" vertex="1" parent="Qtv70iltkPXdNL7PVpSX-108">
          <mxGeometry x="310" y="1550" width="80" height="80" as="geometry" />
        </mxCell>
        <mxCell id="VakFBbvGxdhkE8vkGhw--59" value="session_id" style="ellipse;whiteSpace=wrap;html=1;" vertex="1" parent="Qtv70iltkPXdNL7PVpSX-108">
          <mxGeometry x="165" y="1645" width="80" height="80" as="geometry" />
        </mxCell>
        <mxCell id="VakFBbvGxdhkE8vkGhw--61" value="student_id" style="ellipse;whiteSpace=wrap;html=1;" vertex="1" parent="Qtv70iltkPXdNL7PVpSX-108">
          <mxGeometry x="210" y="1560" width="80" height="80" as="geometry" />
        </mxCell>
        <mxCell id="VakFBbvGxdhkE8vkGhw--63" value="details" style="ellipse;whiteSpace=wrap;html=1;" vertex="1" parent="Qtv70iltkPXdNL7PVpSX-108">
          <mxGeometry x="220" y="1720" width="80" height="80" as="geometry" />
        </mxCell>
        <mxCell id="VakFBbvGxdhkE8vkGhw--65" value="created_at" style="ellipse;whiteSpace=wrap;html=1;" vertex="1" parent="Qtv70iltkPXdNL7PVpSX-108">
          <mxGeometry x="340" y="1760" width="80" height="80" as="geometry" />
        </mxCell>
        <mxCell id="VakFBbvGxdhkE8vkGhw--67" value="updated_id" style="ellipse;whiteSpace=wrap;html=1;" vertex="1" parent="Qtv70iltkPXdNL7PVpSX-108">
          <mxGeometry x="460" y="1780" width="80" height="80" as="geometry" />
        </mxCell>
        <mxCell id="VakFBbvGxdhkE8vkGhw--69" value="class_id" style="ellipse;whiteSpace=wrap;html=1;" vertex="1" parent="Qtv70iltkPXdNL7PVpSX-108">
          <mxGeometry x="750" y="630" width="80" height="80" as="geometry" />
        </mxCell>
        <mxCell id="VakFBbvGxdhkE8vkGhw--72" value="sutdent_id" style="ellipse;whiteSpace=wrap;html=1;" vertex="1" parent="Qtv70iltkPXdNL7PVpSX-108">
          <mxGeometry x="565" y="630" width="80" height="80" as="geometry" />
        </mxCell>
        <mxCell id="VakFBbvGxdhkE8vkGhw--77" value="base_fee_owed" style="ellipse;whiteSpace=wrap;html=1;" vertex="1" parent="Qtv70iltkPXdNL7PVpSX-108">
          <mxGeometry x="532.5" y="730" width="92.5" height="80" as="geometry" />
        </mxCell>
        <mxCell id="VakFBbvGxdhkE8vkGhw--80" value="book_fee_owed" style="ellipse;whiteSpace=wrap;html=1;" vertex="1" parent="Qtv70iltkPXdNL7PVpSX-108">
          <mxGeometry x="580" y="820" width="107.5" height="80" as="geometry" />
        </mxCell>
        <mxCell id="VakFBbvGxdhkE8vkGhw--83" value="attendance" style="ellipse;whiteSpace=wrap;html=1;" vertex="1" parent="Qtv70iltkPXdNL7PVpSX-108">
          <mxGeometry x="860" y="650" width="80" height="80" as="geometry" />
        </mxCell>
        <mxCell id="VakFBbvGxdhkE8vkGhw--85" value="midterm" style="ellipse;whiteSpace=wrap;html=1;" vertex="1" parent="Qtv70iltkPXdNL7PVpSX-108">
          <mxGeometry x="687.5" y="870" width="80" height="80" as="geometry" />
        </mxCell>
        <mxCell id="VakFBbvGxdhkE8vkGhw--87" value="final" style="ellipse;whiteSpace=wrap;html=1;" vertex="1" parent="Qtv70iltkPXdNL7PVpSX-108">
          <mxGeometry x="767.5" y="950" width="80" height="80" as="geometry" />
        </mxCell>
        <mxCell id="VakFBbvGxdhkE8vkGhw--89" value="overall" style="ellipse;whiteSpace=wrap;html=1;" vertex="1" parent="Qtv70iltkPXdNL7PVpSX-108">
          <mxGeometry x="630" y="950" width="80" height="80" as="geometry" />
        </mxCell>
        <mxCell id="VakFBbvGxdhkE8vkGhw--91" value="created_at" style="ellipse;whiteSpace=wrap;html=1;" vertex="1" parent="Qtv70iltkPXdNL7PVpSX-108">
          <mxGeometry x="800" y="560" width="80" height="80" as="geometry" />
        </mxCell>
        <mxCell id="VakFBbvGxdhkE8vkGhw--93" value="updated_at" style="ellipse;whiteSpace=wrap;html=1;" vertex="1" parent="Qtv70iltkPXdNL7PVpSX-108">
          <mxGeometry x="900" y="570" width="80" height="80" as="geometry" />
        </mxCell>
        <mxCell id="VakFBbvGxdhkE8vkGhw--97" value="" style="edgeStyle=orthogonalEdgeStyle;rounded=0;orthogonalLoop=1;jettySize=auto;html=1;" edge="1" parent="Qtv70iltkPXdNL7PVpSX-108" source="VakFBbvGxdhkE8vkGhw--95" target="VakFBbvGxdhkE8vkGhw--96">
          <mxGeometry relative="1" as="geometry" />
        </mxCell>
        <mxCell id="VakFBbvGxdhkE8vkGhw--98" value="" style="edgeStyle=orthogonalEdgeStyle;rounded=0;orthogonalLoop=1;jettySize=auto;html=1;" edge="1" parent="Qtv70iltkPXdNL7PVpSX-108" source="VakFBbvGxdhkE8vkGhw--95" target="VakFBbvGxdhkE8vkGhw--96">
          <mxGeometry relative="1" as="geometry" />
        </mxCell>
        <mxCell id="VakFBbvGxdhkE8vkGhw--100" value="" style="edgeStyle=orthogonalEdgeStyle;rounded=0;orthogonalLoop=1;jettySize=auto;html=1;" edge="1" parent="Qtv70iltkPXdNL7PVpSX-108" source="VakFBbvGxdhkE8vkGhw--95" target="VakFBbvGxdhkE8vkGhw--99">
          <mxGeometry relative="1" as="geometry" />
        </mxCell>
        <mxCell id="VakFBbvGxdhkE8vkGhw--102" value="" style="edgeStyle=orthogonalEdgeStyle;rounded=0;orthogonalLoop=1;jettySize=auto;html=1;" edge="1" parent="Qtv70iltkPXdNL7PVpSX-108" source="VakFBbvGxdhkE8vkGhw--95" target="VakFBbvGxdhkE8vkGhw--101">
          <mxGeometry relative="1" as="geometry" />
        </mxCell>
        <mxCell id="VakFBbvGxdhkE8vkGhw--104" value="" style="edgeStyle=orthogonalEdgeStyle;rounded=0;orthogonalLoop=1;jettySize=auto;html=1;" edge="1" parent="Qtv70iltkPXdNL7PVpSX-108" source="VakFBbvGxdhkE8vkGhw--95" target="VakFBbvGxdhkE8vkGhw--103">
          <mxGeometry relative="1" as="geometry" />
        </mxCell>
        <mxCell id="VakFBbvGxdhkE8vkGhw--106" value="" style="edgeStyle=orthogonalEdgeStyle;rounded=0;orthogonalLoop=1;jettySize=auto;html=1;" edge="1" parent="Qtv70iltkPXdNL7PVpSX-108" source="VakFBbvGxdhkE8vkGhw--95" target="VakFBbvGxdhkE8vkGhw--105">
          <mxGeometry relative="1" as="geometry" />
        </mxCell>
        <mxCell id="VakFBbvGxdhkE8vkGhw--95" value="&lt;span style=&quot;font-size: 24px;&quot;&gt;class Announcement&lt;/span&gt;" style="rounded=0;whiteSpace=wrap;html=1;" vertex="1" parent="Qtv70iltkPXdNL7PVpSX-108">
          <mxGeometry x="1400" y="1860" width="210" height="90" as="geometry" />
        </mxCell>
        <mxCell id="VakFBbvGxdhkE8vkGhw--96" value="id" style="ellipse;whiteSpace=wrap;html=1;rounded=0;" vertex="1" parent="Qtv70iltkPXdNL7PVpSX-108">
          <mxGeometry x="1670" y="1835" width="80" height="80" as="geometry" />
        </mxCell>
        <mxCell id="VakFBbvGxdhkE8vkGhw--99" value="class_id" style="ellipse;whiteSpace=wrap;html=1;rounded=0;" vertex="1" parent="Qtv70iltkPXdNL7PVpSX-108">
          <mxGeometry x="1670" y="1940" width="80" height="80" as="geometry" />
        </mxCell>
        <mxCell id="VakFBbvGxdhkE8vkGhw--101" value="body" style="ellipse;whiteSpace=wrap;html=1;rounded=0;" vertex="1" parent="Qtv70iltkPXdNL7PVpSX-108">
          <mxGeometry x="1560" y="1980" width="80" height="80" as="geometry" />
        </mxCell>
        <mxCell id="VakFBbvGxdhkE8vkGhw--103" value="created_at" style="ellipse;whiteSpace=wrap;html=1;rounded=0;" vertex="1" parent="Qtv70iltkPXdNL7PVpSX-108">
          <mxGeometry x="1290" y="1850" width="80" height="80" as="geometry" />
        </mxCell>
        <mxCell id="VakFBbvGxdhkE8vkGhw--105" value="updated_id" style="ellipse;whiteSpace=wrap;html=1;rounded=0;" vertex="1" parent="Qtv70iltkPXdNL7PVpSX-108">
          <mxGeometry x="1380" y="1980" width="80" height="80" as="geometry" />
        </mxCell>
        <mxCell id="VakFBbvGxdhkE8vkGhw--109" style="edgeStyle=orthogonalEdgeStyle;rounded=0;orthogonalLoop=1;jettySize=auto;html=1;" edge="1" parent="Qtv70iltkPXdNL7PVpSX-108" source="VakFBbvGxdhkE8vkGhw--107" target="VakFBbvGxdhkE8vkGhw--95">
          <mxGeometry relative="1" as="geometry" />
        </mxCell>
        <mxCell id="VakFBbvGxdhkE8vkGhw--107" value="has" style="rhombus;whiteSpace=wrap;html=1;" vertex="1" parent="Qtv70iltkPXdNL7PVpSX-108">
          <mxGeometry x="1290" y="1580" width="130" height="80" as="geometry" />
        </mxCell>
        <mxCell id="Qtv70iltkPXdNL7PVpSX-110" style="edgeStyle=orthogonalEdgeStyle;rounded=0;orthogonalLoop=1;jettySize=auto;html=1;" parent="1" source="GTe_rG1EHSNJOBv9OXUv-4" target="uTlC51wtbgL0At9paiF0-73" edge="1">
          <mxGeometry relative="1" as="geometry">
            <Array as="points">
              <mxPoint x="20" y="470" />
              <mxPoint x="460" y="470" />
            </Array>
          </mxGeometry>
        </mxCell>
      </root>
    </mxGraphModel>
  </diagram>
</mxfile>
